G04*
G04 Format:               Gerber RS-274X*
G04 Layer:                TopCopper*
G04 This File Name:       Mini (Ver 4l 2024).gtl*
G04 Source File Name:     Mini (Ver 4l 2024).rrb*
G04 Unique ID:            9c8083e7-ab2a-4ad3-9dcb-41d5e6687822*
G04 Generated Date:       Sunday, 20 October 2024 01:14:28*
G04*
G04 Created Using:        Robot Room Copper Connection v2.7.5443*
G04 Software Contact:     http://www.robotroom.com/CopperConnection/Support.aspx*
G04 License Number:       1685*
G04 Student Edition:      true*
G04*
G04 Zero Suppression:     Leading*
G04 Number Precision:     2.4*
G04*
%FSLAX24Y24*%
%MOIN*%
%LNTopCopper*%
%ADD10C,.01*%
%ADD11C,.012*%
%ADD12C,.02*%
%ADD13C,.025*%
%ADD14C,.026*%
%ADD15C,.03*%
%ADD16C,.031*%
%ADD17C,.034*%
%ADD18C,.036*%
%ADD19C,.04*%
%ADD20C,.044*%
%ADD21C,.049*%
%ADD22C,.05*%
%ADD23C,.054*%
%ADD24C,.055*%
%ADD25C,.056*%
%ADD26C,.06*%
%ADD27C,.064*%
%ADD28C,.065*%
%ADD29C,.075*%
%ADD30C,.08*%
%ADD31C,.088*%
%ADD32C,.089*%
%ADD33C,.099*%
%ADD34C,.112*%
%ADD35C,.15*%
%ADD36C,.16*%
%ADD37C,.174*%
%ADD38C,.184*%
%ADD39R,.006X.006*%
%ADD40R,.056X.056*%
%ADD41R,.065X.065*%
%ADD42R,.075X.075*%
%ADD43R,.08X.08*%
%ADD44R,.089X.089*%
%ADD45R,.099X.099*%
%ADD46R,.04X.05*%
%ADD47R,.05X.04*%
%ADD48R,.055X.06*%
%ADD49R,.064X.074*%
%ADD50R,.074X.064*%
%ADD51R,.079X.084*%
G36*
G01X41500Y25500D02*
X0D01*
Y0D01*
X41500D01*
Y25500D01*
G37*
%LPC*%
G36*
X0Y23250D02*
X2250D01*
Y25500D01*
X0D01*
Y23250D01*
G37*
G36*
X0Y0D02*
X2250D01*
Y2250D01*
X0D01*
Y0D01*
G37*
G36*
X39000Y2750D02*
X41500D01*
Y5250D01*
X39000D01*
Y2750D01*
G37*
G36*
X39250Y23250D02*
X41500D01*
Y25500D01*
X39250D01*
Y23250D01*
G37*
G36*
X26500Y4000D02*
Y3500D01*
X27750D01*
Y4000D01*
X26500D01*
G37*
G36*
X22250Y4000D02*
X22750Y4500D01*
X25000D01*
Y5000D01*
X26500D01*
Y3750D01*
X22250D01*
Y4000D01*
G37*
G36*
X38000Y3000D02*
X38500D01*
Y6250D01*
X38000D01*
Y3000D01*
G37*
D17*
X29500Y8750D02*
X32500D01*
X23250Y1750D02*
Y2250D01*
X39000Y23000D02*
Y17500D01*
X38750Y2500D02*
X23500D01*
X39000Y17500D02*
X39500Y17000D01*
X36000Y11000D02*
Y9500D01*
X35750Y9250D01*
X15250Y22250D02*
X23500D01*
X750Y17000D02*
X2250D01*
X750Y16000D02*
X3000D01*
X38250Y17750D02*
Y22500D01*
X750Y15000D02*
X6250D01*
X3000Y16000D02*
X3250Y16250D01*
Y17000D01*
X750Y14000D02*
X1250Y14500D01*
X750Y13000D02*
X1250Y12500D01*
Y14500D02*
X4500D01*
X4750Y14250D01*
X750Y12000D02*
X3000D01*
X4750Y14250D02*
Y12500D01*
X39500Y17000D02*
Y9750D01*
X1250Y12500D02*
X4000D01*
X4750D02*
X5250Y12000D01*
Y11000D01*
X4250D02*
Y12250D01*
X3000Y12000D02*
X3250Y11750D01*
Y11000D01*
X4250Y12250D02*
X4000Y12500D01*
X38750Y23250D02*
X32750D01*
X12250Y4750D02*
Y3000D01*
X13250Y4750D02*
Y3250D01*
X25500Y5250D02*
X32750D01*
X14750Y23000D02*
X12750D01*
X39500Y9750D02*
X40750Y8500D01*
X3250Y15250D02*
X12750D01*
X29500Y22750D02*
X38000D01*
X12500Y2750D02*
X29250D01*
X37500Y17500D02*
X38000D01*
X2250Y15500D02*
X10750D01*
X40750Y8500D02*
Y6000D01*
X14250Y4750D02*
Y3500D01*
X13500Y3000D02*
X28250D01*
X40500Y5750D02*
X38500D01*
X8500Y18000D02*
X8250Y18250D01*
X15250Y4750D02*
Y3750D01*
X35750Y4000D02*
X33250D01*
X38250Y5500D02*
Y3750D01*
X17250Y4750D02*
Y4250D01*
X14500Y3250D02*
X29750D01*
X28500Y21500D02*
Y22250D01*
X27500Y21500D02*
Y22250D01*
X16250Y4750D02*
Y4000D01*
X28750Y22500D02*
X37250D01*
X37500Y22250D02*
Y18500D01*
X26500Y21500D02*
Y22000D01*
X15500Y3500D02*
X28750D01*
X27250Y22500D02*
X14250D01*
X27500Y5750D02*
X34750D01*
X26250Y22250D02*
X23500D01*
X10250Y17750D02*
X29500D01*
X18250Y4750D02*
Y5250D01*
X16500Y3750D02*
X26750D01*
X17500Y4000D02*
X22250D01*
X32500Y23500D02*
Y24500D01*
X22250Y4000D02*
X22750Y4500D01*
X25750D01*
X18500Y5500D02*
X22000D01*
X37500Y16500D02*
X37000D01*
X22000Y5500D02*
X22500Y5000D01*
X23750D01*
X19250Y6000D02*
X23750D01*
X28000Y11000D02*
Y12250D01*
X14750Y23000D02*
X26500D01*
X37000Y16500D02*
X36750Y16750D01*
X15500Y18000D02*
X8500D01*
X25500Y22750D02*
X11750D01*
X36750Y16750D02*
Y18250D01*
X35750Y9250D02*
X26500D01*
X15250Y15500D02*
X35000D01*
X28000Y12250D02*
X27750Y12500D01*
X10750D01*
X17250Y19500D02*
Y18250D01*
X16250Y20250D02*
X25000D01*
X15750Y21500D02*
Y18250D01*
X18250Y19500D02*
Y18500D01*
X17500Y18000D02*
X24000D01*
X19250Y19500D02*
Y18750D01*
X18500Y18250D02*
X28000D01*
X14250Y15750D02*
X34000D01*
X19500Y18500D02*
X30000D01*
X26500Y9250D02*
X26250Y9000D01*
X36500Y18500D02*
X31250D01*
X20250Y19500D02*
Y19000D01*
X20500Y18750D02*
X27000D01*
X31000D02*
Y19500D01*
X26250Y9000D02*
Y7750D01*
X21250Y20500D02*
X26000D01*
X13250Y16000D02*
X33000D01*
X40500Y5750D02*
X40750Y6000D01*
X9750Y23250D02*
X30250D01*
X30500Y23500D02*
Y24500D01*
X16250Y15250D02*
X36500D01*
X17250Y15000D02*
X35500D01*
X18250Y14750D02*
X34500D01*
X20250Y4750D02*
X21250D01*
X28500Y24500D02*
Y24000D01*
X28250Y23750D02*
X24250D01*
X14250Y11000D02*
Y11750D01*
X14000Y12000D01*
X6000D01*
X5750Y11750D01*
Y10250D01*
X5500Y10000D01*
X3000D01*
X2750Y10250D01*
Y11500D01*
X12500Y2750D02*
X12250Y3000D01*
X13250Y3250D02*
X13500Y3000D01*
X2750Y11500D02*
X2500Y11750D01*
X14250Y3500D02*
X14500Y3250D01*
X2500Y11750D02*
X1500D01*
X15250Y3750D02*
X15500Y3500D01*
X1500Y11750D02*
X750Y11000D01*
X16250Y4000D02*
X16500Y3750D01*
X17250Y4250D02*
X17500Y4000D01*
X18250Y5250D02*
X18500Y5500D01*
X39250Y7750D02*
Y8500D01*
X38250Y7750D02*
Y6250D01*
X39000Y8750D02*
X32500D01*
X28500Y6000D02*
X38000D01*
X29250Y8500D02*
Y7750D01*
X28250Y6250D02*
Y7750D01*
X37250Y5750D02*
X34750D01*
X27250Y6000D02*
Y7750D01*
X36250Y5500D02*
X26500D01*
X26250Y5750D02*
Y7750D01*
X35250Y5250D02*
X32750D01*
X25250Y5500D02*
Y7750D01*
X34250Y5000D02*
X24500D01*
X24250Y5250D02*
Y7750D01*
X39250Y1750D02*
Y2500D01*
X33250Y4000D02*
X23250D01*
X39000Y2750D02*
X31500D01*
X23500Y2500D02*
X23250Y2250D01*
X38250Y3000D02*
X30750D01*
X37250Y3750D02*
X27250D01*
X29500Y8750D02*
X29250Y8500D01*
X25500Y5250D02*
X25250Y5500D01*
X26500D02*
X26250Y5750D01*
X27500D02*
X27250Y6000D01*
X28500D02*
X28250Y6250D01*
X24500Y5000D02*
X24250Y5250D01*
X38750Y23250D02*
X39000Y23000D01*
X38250Y22500D02*
X38000Y22750D01*
Y17500D02*
X38250Y17750D01*
X37500Y22250D02*
X37250Y22500D01*
X28750D02*
X28500Y22250D01*
X26500Y22000D02*
X26250Y22250D01*
X27250Y22500D02*
X27500Y22250D01*
X31250Y18500D02*
X31000Y18750D01*
X36500Y18500D02*
X36750Y18250D01*
X15750D02*
X15500Y18000D01*
X17500D02*
X17250Y18250D01*
X18500D02*
X18250Y18500D01*
X19500D02*
X19250Y18750D01*
X20500D02*
X20250Y19000D01*
X39250Y8500D02*
X39000Y8750D01*
X38250Y5500D02*
X38500Y5750D01*
X38250Y3750D02*
X38000Y3500D01*
X39250Y2500D02*
X39000Y2750D01*
X28250Y23750D02*
X28500Y24000D01*
X30250Y23250D02*
X30500Y23500D01*
X32750Y23250D02*
X32500Y23500D01*
X8250Y18250D02*
Y19500D01*
X38000Y6000D02*
X38250Y6250D01*
X31500Y2750D02*
X29250D01*
X33250Y3500D02*
X38000D01*
X30750Y3000D02*
X28250D01*
X19250Y14500D02*
X33500D01*
X20250Y14250D02*
X32500D01*
D18*
X13750Y21500D02*
Y22000D01*
X13500Y22250D01*
X10500D01*
X8250Y21250D02*
X9500D01*
X10500Y22250D01*
D20*
X2460Y20500D02*
Y22460D01*
X12750Y21500D02*
X11750D01*
D21*
X7250Y2750D02*
Y3610D01*
X11750Y2000D02*
X12740D01*
X3250Y2500D02*
X7000D01*
X11500Y1050D02*
Y1750D01*
X5480Y1050D02*
X4260D01*
X8500Y3610D02*
X9730D01*
X11500Y1750D02*
X11750Y2000D01*
X7250Y2750D02*
X7000Y2500D01*
X3500Y20500D02*
X2460D01*
D22*
X10750Y20500D03*
X27000Y18750D03*
X34750Y5750D03*
X10250Y17750D03*
X29500Y22750D03*
X6250Y15000D03*
X12750Y20500D03*
X16250Y15250D03*
X32500Y8750D03*
X33750Y6000D03*
X7220Y9660D03*
X3250Y15250D03*
X14750Y23000D03*
X12750D03*
X32750Y5250D03*
X13500Y2000D03*
X31500Y2750D03*
X26000Y20500D03*
X12750Y15250D03*
X21250Y20500D03*
X30000Y18500D03*
X2250Y15500D03*
X10750D03*
X37250Y5750D03*
X36250Y5500D03*
X35250Y5250D03*
X34250Y5000D03*
X23250Y4000D03*
X33250D03*
X27250Y3750D03*
X38250Y3000D03*
X37250Y3750D03*
X38750Y2500D03*
X30750Y3000D03*
X29500Y17750D03*
X35750Y4000D03*
X29750Y3250D03*
X28250Y3000D03*
X29250Y2750D03*
X28750Y3500D03*
X14250Y22500D03*
X15250Y22250D03*
X3250Y2500D03*
X23500Y22250D03*
X26750Y3750D03*
X33250Y3500D03*
X25750Y4500D03*
X19250Y6000D03*
X25500Y22750D03*
X23750Y5000D03*
Y6000D03*
X26500Y23000D03*
X15250Y15500D03*
X35000D03*
X11750Y22750D03*
X10750Y12500D03*
X14250Y15750D03*
X16250Y20250D03*
X25000D03*
X24000Y18000D03*
X34000Y15750D03*
X28000Y18250D03*
X13250Y16000D03*
X33000D03*
X9750Y23250D03*
X14810Y9660D03*
X3250Y1750D03*
X36500Y15250D03*
X17250Y15000D03*
X35500D03*
X18250Y14750D03*
X34500D03*
X19250Y14500D03*
X33500D03*
X20250Y14250D03*
X24250Y23750D03*
X32500Y14250D03*
D23*
X22250Y1750D02*
X23250D01*
X32250D02*
X33250D01*
D24*
X3500Y20500D03*
D27*
X8250Y8900D02*
X9250D01*
X8250D02*
X7230D01*
X9250D02*
X10250D01*
X8250Y10000D02*
Y11000D01*
X9250D02*
Y10000D01*
X10250Y11000D02*
Y10000D01*
Y8900D02*
X11250D01*
Y10000D02*
Y11000D01*
Y8900D02*
X12250D01*
Y10000D02*
Y11000D01*
X13250Y10000D02*
Y11000D01*
X12250Y8900D02*
X13250D01*
X14810D01*
D30*
X24000Y13500D03*
X25000D03*
X26000D03*
X27000D03*
X28000D03*
X29000D03*
X30000D03*
X31000D03*
X32000D03*
X33000D03*
X34000D03*
X35000D03*
X36000D03*
Y19500D03*
X35000D03*
X34000D03*
X33000D03*
X32000D03*
X31000D03*
X30000D03*
X29000D03*
X28000D03*
X27000D03*
X26000D03*
X25000D03*
X24000D03*
X23000D03*
X26000Y17000D03*
X27000D03*
X28000D03*
X29000D03*
X30000D03*
X31000D03*
X32000D03*
X33000D03*
X34000D03*
X35000D03*
X36000D03*
Y11000D03*
X35000D03*
X34000D03*
X33000D03*
X32000D03*
X31000D03*
X30000D03*
X29000D03*
X28000D03*
X27000D03*
X26000D03*
X25000D03*
X3250Y13500D03*
X4250D03*
X5250D03*
X6250D03*
X7250D03*
X8250D03*
X9250D03*
X10250D03*
X11250D03*
X12250D03*
X13250D03*
X14250D03*
X15250D03*
X16250D03*
X17250D03*
X18250D03*
X19250D03*
X20250D03*
X21250D03*
Y19500D03*
X20250D03*
X19250D03*
X18250D03*
X17250D03*
X16250D03*
X15250D03*
X14250D03*
X13250D03*
X12250D03*
X11250D03*
X10250D03*
X9250D03*
X8250D03*
X7250D03*
X6250D03*
X5250D03*
X4250D03*
X3250D03*
X2250D03*
X3250Y17000D03*
X4250D03*
X5250D03*
X6250D03*
X7250D03*
X8250D03*
X9250D03*
X10250D03*
X11250D03*
X12250D03*
X13250D03*
X14250D03*
X15250D03*
X16250D03*
X17250D03*
X18250D03*
X19250D03*
X20250D03*
X21250D03*
Y11000D03*
X20250D03*
X19250D03*
X18250D03*
X17250D03*
X16250D03*
X15250D03*
X14250D03*
X13250D03*
X12250D03*
X11250D03*
X10250D03*
X9250D03*
X8250D03*
X7250D03*
X6250D03*
X5250D03*
X4250D03*
X3250D03*
X2250D03*
X15750Y24500D03*
X14750D03*
X13750D03*
X12750D03*
X11750D03*
X10750D03*
Y21500D03*
X11750D03*
X12750D03*
X13750D03*
X14750D03*
X15750D03*
X16750D03*
X24250Y1750D03*
X22250D03*
X23250D03*
X25250D03*
X26250D03*
X27250D03*
X28250D03*
X29250D03*
X30250D03*
Y7750D03*
X29250D03*
X28250D03*
X27250D03*
X26250D03*
X25250D03*
X24250D03*
X23250D03*
X22250D03*
X1460Y22460D03*
X750Y17000D03*
Y16000D03*
Y15000D03*
Y14000D03*
Y13000D03*
Y12000D03*
Y11000D03*
X34250Y1750D03*
X32250D03*
X33250D03*
X35250D03*
X36250D03*
X37250D03*
X38250D03*
X39250D03*
X40250D03*
Y7750D03*
X39250D03*
X38250D03*
X37250D03*
X36250D03*
X35250D03*
X34250D03*
X33250D03*
X32250D03*
X19250D03*
X18250D03*
X17250D03*
X16250D03*
X15250D03*
X14250D03*
X13250D03*
X12250D03*
X11250D03*
Y4750D03*
X12250D03*
X13250D03*
X14250D03*
X15250D03*
X16250D03*
X17250D03*
X18250D03*
X19250D03*
X20250D03*
X37500Y17500D03*
Y16500D03*
Y15500D03*
Y14500D03*
Y13500D03*
Y12500D03*
X40500D03*
Y13500D03*
Y14500D03*
Y15500D03*
Y16500D03*
Y17500D03*
Y18500D03*
X26500Y21500D03*
X27500D03*
X28500D03*
X29500D03*
X30500D03*
X31500D03*
X32500D03*
Y24500D03*
X31500D03*
X30500D03*
X29500D03*
X28500D03*
X27500D03*
X26500D03*
X25500D03*
X36750Y21500D03*
X21390Y21450D03*
X21250Y11890D03*
X20250D03*
X19250D03*
X18250D03*
X17250D03*
X16250D03*
X15250D03*
D32*
X5250Y21250D03*
X8250D03*
Y24250D03*
X3070Y6370D03*
Y5390D03*
X3850Y6370D03*
D33*
X21250Y9720D03*
D34*
X7250Y3610D03*
Y1050D03*
X5480Y3610D03*
Y1050D03*
X11500Y3610D03*
Y1050D03*
X9730Y3610D03*
Y1050D03*
X7250Y7000D03*
X9810D03*
X7250Y5230D03*
X9810D03*
D37*
X2000Y8250D03*
Y3510D03*
D38*
X1000Y24500D03*
Y1000D03*
X40350Y4030D03*
X40500Y24500D03*
D43*
X23000Y13500D03*
X25000Y17000D03*
X2250Y13500D03*
Y17000D03*
X16750Y24500D03*
X2460Y22460D03*
X750Y18000D03*
X20250Y7750D03*
X37500Y18500D03*
X25500Y21500D03*
X35750D03*
X22390Y21450D03*
X22250Y11890D03*
D44*
X5250Y24250D03*
X3850Y5390D03*
D45*
X5030Y7840D03*
X20250Y9720D03*
D49*
X13500Y2000D03*
X12740D03*
X1700Y20500D03*
X2460D03*
X35500Y24500D03*
X34740D03*
X10000Y20500D03*
X10760D03*
X13500D03*
X12740D03*
X19750Y21500D03*
X18990D03*
X4140Y9200D03*
X3380D03*
X17750Y1250D03*
X16990D03*
D50*
X7230Y8900D03*
X4260Y1050D03*
Y1810D03*
X8500Y3610D03*
Y2850D03*
X23250Y10250D03*
Y11010D03*
X7230Y9660D03*
X14810Y8900D03*
Y9660D03*
X3250Y2500D03*
Y1740D03*
D51*
X3500Y20500D03*
Y21600D03*
X8250Y10000D03*
Y8900D03*
X9250Y10000D03*
Y8900D03*
X13250Y10000D03*
Y8900D03*
X12250Y10000D03*
Y8900D03*
X11250Y10000D03*
Y8900D03*
X10250Y10000D03*
Y8900D03*
%LPD*%
D10*
X29500Y8750D02*
X32500D01*
X23250Y1750D02*
Y2250D01*
X39000Y23000D02*
Y17500D01*
X38750Y2500D02*
X23500D01*
X39000Y17500D02*
X39500Y17000D01*
X36000Y11000D02*
Y9500D01*
X35750Y9250D01*
X15250Y22250D02*
X23500D01*
X750Y17000D02*
X2250D01*
X750Y16000D02*
X3000D01*
X38250Y17750D02*
Y22500D01*
X750Y15000D02*
X6250D01*
X3000Y16000D02*
X3250Y16250D01*
Y17000D01*
X750Y14000D02*
X1250Y14500D01*
X750Y13000D02*
X1250Y12500D01*
Y14500D02*
X4500D01*
X4750Y14250D01*
X750Y12000D02*
X3000D01*
X4750Y14250D02*
Y12500D01*
X39500Y17000D02*
Y9750D01*
X1250Y12500D02*
X4000D01*
X4750D02*
X5250Y12000D01*
Y11000D01*
X4250D02*
Y12250D01*
X3000Y12000D02*
X3250Y11750D01*
Y11000D01*
X4250Y12250D02*
X4000Y12500D01*
X38750Y23250D02*
X32750D01*
X12250Y4750D02*
Y3000D01*
X13250Y4750D02*
Y3250D01*
X25500Y5250D02*
X32750D01*
X14750Y23000D02*
X12750D01*
X39500Y9750D02*
X40750Y8500D01*
X3250Y15250D02*
X12750D01*
X29500Y22750D02*
X38000D01*
X12500Y2750D02*
X29250D01*
X37500Y17500D02*
X38000D01*
X2250Y15500D02*
X10750D01*
X40750Y8500D02*
Y6000D01*
X14250Y4750D02*
Y3500D01*
X13500Y3000D02*
X28250D01*
X40500Y5750D02*
X38500D01*
X8500Y18000D02*
X8250Y18250D01*
X15250Y4750D02*
Y3750D01*
X35750Y4000D02*
X33250D01*
X38250Y5500D02*
Y3750D01*
X17250Y4750D02*
Y4250D01*
X14500Y3250D02*
X29750D01*
X28500Y21500D02*
Y22250D01*
X27500Y21500D02*
Y22250D01*
X16250Y4750D02*
Y4000D01*
X28750Y22500D02*
X37250D01*
X37500Y22250D02*
Y18500D01*
X26500Y21500D02*
Y22000D01*
X15500Y3500D02*
X28750D01*
X27250Y22500D02*
X14250D01*
X27500Y5750D02*
X34750D01*
X26250Y22250D02*
X23500D01*
X10250Y17750D02*
X29500D01*
X18250Y4750D02*
Y5250D01*
X16500Y3750D02*
X26750D01*
X17500Y4000D02*
X22250D01*
X32500Y23500D02*
Y24500D01*
X22250Y4000D02*
X22750Y4500D01*
X25750D01*
X18500Y5500D02*
X22000D01*
X37500Y16500D02*
X37000D01*
X22000Y5500D02*
X22500Y5000D01*
X23750D01*
X19250Y6000D02*
X23750D01*
X28000Y11000D02*
Y12250D01*
X14750Y23000D02*
X26500D01*
X37000Y16500D02*
X36750Y16750D01*
X15500Y18000D02*
X8500D01*
X25500Y22750D02*
X11750D01*
X36750Y16750D02*
Y18250D01*
X35750Y9250D02*
X26500D01*
X15250Y15500D02*
X35000D01*
X28000Y12250D02*
X27750Y12500D01*
X10750D01*
X17250Y19500D02*
Y18250D01*
X16250Y20250D02*
X25000D01*
X15750Y21500D02*
Y18250D01*
X18250Y19500D02*
Y18500D01*
X17500Y18000D02*
X24000D01*
X19250Y19500D02*
Y18750D01*
X18500Y18250D02*
X28000D01*
X14250Y15750D02*
X34000D01*
X19500Y18500D02*
X30000D01*
X26500Y9250D02*
X26250Y9000D01*
X36500Y18500D02*
X31250D01*
X20250Y19500D02*
Y19000D01*
X20500Y18750D02*
X27000D01*
X31000D02*
Y19500D01*
X26250Y9000D02*
Y7750D01*
X21250Y20500D02*
X26000D01*
X13250Y16000D02*
X33000D01*
X40500Y5750D02*
X40750Y6000D01*
X9750Y23250D02*
X30250D01*
X30500Y23500D02*
Y24500D01*
X16250Y15250D02*
X36500D01*
X17250Y15000D02*
X35500D01*
X18250Y14750D02*
X34500D01*
X20250Y4750D02*
X21250D01*
X28500Y24500D02*
Y24000D01*
X28250Y23750D02*
X24250D01*
X14250Y11000D02*
Y11750D01*
X14000Y12000D01*
X6000D01*
X5750Y11750D01*
Y10250D01*
X5500Y10000D01*
X3000D01*
X2750Y10250D01*
Y11500D01*
X12500Y2750D02*
X12250Y3000D01*
X13250Y3250D02*
X13500Y3000D01*
X2750Y11500D02*
X2500Y11750D01*
X14250Y3500D02*
X14500Y3250D01*
X2500Y11750D02*
X1500D01*
X15250Y3750D02*
X15500Y3500D01*
X1500Y11750D02*
X750Y11000D01*
X16250Y4000D02*
X16500Y3750D01*
X17250Y4250D02*
X17500Y4000D01*
X18250Y5250D02*
X18500Y5500D01*
X39250Y7750D02*
Y8500D01*
X38250Y7750D02*
Y6250D01*
X39000Y8750D02*
X32500D01*
X28500Y6000D02*
X38000D01*
X29250Y8500D02*
Y7750D01*
X28250Y6250D02*
Y7750D01*
X37250Y5750D02*
X34750D01*
X27250Y6000D02*
Y7750D01*
X36250Y5500D02*
X26500D01*
X26250Y5750D02*
Y7750D01*
X35250Y5250D02*
X32750D01*
X25250Y5500D02*
Y7750D01*
X34250Y5000D02*
X24500D01*
X24250Y5250D02*
Y7750D01*
X39250Y1750D02*
Y2500D01*
X33250Y4000D02*
X23250D01*
X39000Y2750D02*
X31500D01*
X23500Y2500D02*
X23250Y2250D01*
X38250Y3000D02*
X30750D01*
X37250Y3750D02*
X27250D01*
X29500Y8750D02*
X29250Y8500D01*
X25500Y5250D02*
X25250Y5500D01*
X26500D02*
X26250Y5750D01*
X27500D02*
X27250Y6000D01*
X28500D02*
X28250Y6250D01*
X24500Y5000D02*
X24250Y5250D01*
X38750Y23250D02*
X39000Y23000D01*
X38250Y22500D02*
X38000Y22750D01*
Y17500D02*
X38250Y17750D01*
X37500Y22250D02*
X37250Y22500D01*
X28750D02*
X28500Y22250D01*
X26500Y22000D02*
X26250Y22250D01*
X27250Y22500D02*
X27500Y22250D01*
X31250Y18500D02*
X31000Y18750D01*
X36500Y18500D02*
X36750Y18250D01*
X15750D02*
X15500Y18000D01*
X17500D02*
X17250Y18250D01*
X18500D02*
X18250Y18500D01*
X19500D02*
X19250Y18750D01*
X20500D02*
X20250Y19000D01*
X39250Y8500D02*
X39000Y8750D01*
X38250Y5500D02*
X38500Y5750D01*
X38250Y3750D02*
X38000Y3500D01*
X39250Y2500D02*
X39000Y2750D01*
X28250Y23750D02*
X28500Y24000D01*
X30250Y23250D02*
X30500Y23500D01*
X32750Y23250D02*
X32500Y23500D01*
X8250Y18250D02*
Y19500D01*
X38000Y6000D02*
X38250Y6250D01*
X31500Y2750D02*
X29250D01*
X33250Y3500D02*
X38000D01*
X30750Y3000D02*
X28250D01*
X19250Y14500D02*
X33500D01*
X20250Y14250D02*
X32500D01*
D11*
X13750Y21500D02*
Y22000D01*
X13500Y22250D01*
X10500D01*
X8250Y21250D02*
X9500D01*
X10500Y22250D01*
D12*
X2460Y20500D02*
Y22460D01*
X12750Y21500D02*
X11750D01*
D13*
X7250Y2750D02*
Y3610D01*
X11750Y2000D02*
X12740D01*
X3250Y2500D02*
X7000D01*
X11500Y1050D02*
Y1750D01*
X5480Y1050D02*
X4260D01*
X8500Y3610D02*
X9730D01*
X11500Y1750D02*
X11750Y2000D01*
X7250Y2750D02*
X7000Y2500D01*
X3500Y20500D02*
X2460D01*
D14*
X10750Y20500D03*
X27000Y18750D03*
X34750Y5750D03*
X22070Y10480D03*
X10250Y17750D03*
X29500Y22750D03*
X6250Y15000D03*
X12750Y20500D03*
X16250Y15250D03*
X32500Y8750D03*
X33750Y6000D03*
X7220Y9660D03*
X3250Y15250D03*
X14750Y23000D03*
X12750D03*
X32750Y5250D03*
X13500Y2000D03*
X31500Y2750D03*
X26000Y20500D03*
X12750Y15250D03*
X21250Y20500D03*
X30000Y18500D03*
X2250Y15500D03*
X10750D03*
X37250Y5750D03*
X36250Y5500D03*
X35250Y5250D03*
X34250Y5000D03*
X23250Y4000D03*
X33250D03*
X27250Y3750D03*
X38250Y3000D03*
X37250Y3750D03*
X38750Y2500D03*
X30750Y3000D03*
X29500Y17750D03*
X23250Y10250D03*
X35750Y4000D03*
X29750Y3250D03*
X28250Y3000D03*
X29250Y2750D03*
X28750Y3500D03*
X14250Y22500D03*
X15250Y22250D03*
X3250Y2500D03*
X23500Y22250D03*
X26750Y3750D03*
X33250Y3500D03*
X34740Y24500D03*
X25750Y4500D03*
X19250Y6000D03*
X25500Y22750D03*
X23750Y5000D03*
Y6000D03*
X26500Y23000D03*
X15250Y15500D03*
X35000D03*
X11750Y22750D03*
X10750Y12500D03*
X14250Y15750D03*
X16250Y20250D03*
X25000D03*
X24000Y18000D03*
X34000Y15750D03*
X28000Y18250D03*
X13250Y16000D03*
X33000D03*
X9750Y23250D03*
X14810Y9660D03*
X3250Y1750D03*
X18990Y21500D03*
X36500Y15250D03*
X17250Y15000D03*
X35500D03*
X18250Y14750D03*
X34500D03*
X19250Y14500D03*
X33500D03*
X20250Y14250D03*
X24250Y23750D03*
X3380Y9200D03*
X17000Y1250D03*
X32500Y14250D03*
D15*
X22250Y1750D02*
X23250D01*
X32250D02*
X33250D01*
D16*
X3500Y20500D03*
D19*
X8250Y8900D02*
X9250D01*
X8250D02*
X7230D01*
X9250D02*
X10250D01*
X8250Y10000D02*
Y11000D01*
X9250D02*
Y10000D01*
X10250Y11000D02*
Y10000D01*
X4260Y1810D02*
X4790D01*
X8500Y2850D02*
Y1500D01*
X10250Y8900D02*
X11250D01*
Y10000D02*
Y11000D01*
Y8900D02*
X12250D01*
Y10000D02*
Y11000D01*
X13250Y10000D02*
Y11000D01*
X12250Y8900D02*
X13250D01*
X14810D01*
X30250Y1750D02*
Y500D01*
X40250Y1750D02*
Y500D01*
X23250Y11010D02*
X25000Y11000D01*
X35500Y24500D02*
X36500D01*
X19750Y21500D02*
Y20750D01*
X22390Y21450D02*
X23240D01*
X14750Y24500D02*
Y25250D01*
X7250Y19500D02*
Y18500D01*
X3500Y21600D02*
X4230D01*
X1700Y20500D02*
X750D01*
X13500D02*
X14250D01*
X10000D02*
X9250D01*
X17750Y1250D02*
X19000D01*
X4140Y9200D02*
X6000Y9250D01*
D22*
X2250Y11000D02*
Y10000D01*
X40500Y18500D02*
Y19500D01*
X35750Y21500D02*
X34750D01*
X25500Y24500D02*
X24250D01*
X16750Y21500D02*
X17500D01*
X16750Y24500D02*
X17750D01*
X2250Y19500D02*
Y18250D01*
D25*
X24000Y13500D03*
X25000D03*
X26000D03*
X27000D03*
X28000D03*
X29000D03*
X30000D03*
X31000D03*
X32000D03*
X33000D03*
X34000D03*
X35000D03*
X36000D03*
Y19500D03*
X35000D03*
X34000D03*
X33000D03*
X32000D03*
X31000D03*
X30000D03*
X29000D03*
X28000D03*
X27000D03*
X26000D03*
X25000D03*
X24000D03*
X23000D03*
X26000Y17000D03*
X27000D03*
X28000D03*
X29000D03*
X30000D03*
X31000D03*
X32000D03*
X33000D03*
X34000D03*
X35000D03*
X36000D03*
Y11000D03*
X35000D03*
X34000D03*
X33000D03*
X32000D03*
X31000D03*
X30000D03*
X29000D03*
X28000D03*
X27000D03*
X26000D03*
X25000D03*
X3250Y13500D03*
X4250D03*
X5250D03*
X6250D03*
X7250D03*
X8250D03*
X9250D03*
X10250D03*
X11250D03*
X12250D03*
X13250D03*
X14250D03*
X15250D03*
X16250D03*
X17250D03*
X18250D03*
X19250D03*
X20250D03*
X21250D03*
Y19500D03*
X20250D03*
X19250D03*
X18250D03*
X17250D03*
X16250D03*
X15250D03*
X14250D03*
X13250D03*
X12250D03*
X11250D03*
X10250D03*
X9250D03*
X8250D03*
X7250D03*
X6250D03*
X5250D03*
X4250D03*
X3250D03*
X2250D03*
X3250Y17000D03*
X4250D03*
X5250D03*
X6250D03*
X7250D03*
X8250D03*
X9250D03*
X10250D03*
X11250D03*
X12250D03*
X13250D03*
X14250D03*
X15250D03*
X16250D03*
X17250D03*
X18250D03*
X19250D03*
X20250D03*
X21250D03*
Y11000D03*
X20250D03*
X19250D03*
X18250D03*
X17250D03*
X16250D03*
X15250D03*
X14250D03*
X13250D03*
X12250D03*
X11250D03*
X10250D03*
X9250D03*
X8250D03*
X7250D03*
X6250D03*
X5250D03*
X4250D03*
X3250D03*
X2250D03*
X15750Y24500D03*
X14750D03*
X13750D03*
X12750D03*
X11750D03*
X10750D03*
Y21500D03*
X11750D03*
X12750D03*
X13750D03*
X14750D03*
X15750D03*
X16750D03*
X24250Y1750D03*
X22250D03*
X23250D03*
X25250D03*
X26250D03*
X27250D03*
X28250D03*
X29250D03*
X30250D03*
Y7750D03*
X29250D03*
X28250D03*
X27250D03*
X26250D03*
X25250D03*
X24250D03*
X23250D03*
X22250D03*
X1460Y22460D03*
X750Y17000D03*
Y16000D03*
Y15000D03*
Y14000D03*
Y13000D03*
Y12000D03*
Y11000D03*
X34250Y1750D03*
X32250D03*
X33250D03*
X35250D03*
X36250D03*
X37250D03*
X38250D03*
X39250D03*
X40250D03*
Y7750D03*
X39250D03*
X38250D03*
X37250D03*
X36250D03*
X35250D03*
X34250D03*
X33250D03*
X32250D03*
X19250D03*
X18250D03*
X17250D03*
X16250D03*
X15250D03*
X14250D03*
X13250D03*
X12250D03*
X11250D03*
Y4750D03*
X12250D03*
X13250D03*
X14250D03*
X15250D03*
X16250D03*
X17250D03*
X18250D03*
X19250D03*
X20250D03*
X37500Y17500D03*
Y16500D03*
Y15500D03*
Y14500D03*
Y13500D03*
Y12500D03*
X40500D03*
Y13500D03*
Y14500D03*
Y15500D03*
Y16500D03*
Y17500D03*
Y18500D03*
X26500Y21500D03*
X27500D03*
X28500D03*
X29500D03*
X30500D03*
X31500D03*
X32500D03*
Y24500D03*
X31500D03*
X30500D03*
X29500D03*
X28500D03*
X27500D03*
X26500D03*
X25500D03*
X36750Y21500D03*
X21390Y21450D03*
X21250Y11890D03*
X20250D03*
X19250D03*
X18250D03*
X17250D03*
X16250D03*
X15250D03*
D26*
X3850Y5390D02*
X4750D01*
X24000Y19500D02*
X23000D01*
X8250Y24250D02*
X7000D01*
D28*
X5250Y21250D03*
X8250D03*
Y24250D03*
X3070Y6370D03*
Y5390D03*
X3850Y6370D03*
D29*
X21250Y9720D03*
D31*
X7250Y3610D03*
Y1050D03*
X5480Y3610D03*
Y1050D03*
X11500Y3610D03*
Y1050D03*
X9730Y3610D03*
Y1050D03*
X7250Y7000D03*
X9810D03*
X7250Y5230D03*
X9810D03*
D35*
X2000Y8250D03*
Y3510D03*
D36*
X1000Y24500D03*
Y1000D03*
X40350Y4030D03*
X40500Y24500D03*
D40*
X23000Y13500D03*
X25000Y17000D03*
X2250Y13500D03*
Y17000D03*
X16750Y24500D03*
X2460Y22460D03*
X750Y18000D03*
X20250Y7750D03*
X37500Y18500D03*
X25500Y21500D03*
X35750D03*
X22390Y21450D03*
X22250Y11890D03*
D41*
X5250Y24250D03*
X3850Y5390D03*
D42*
X5030Y7840D03*
X20250Y9720D03*
D46*
X13500Y2000D03*
X12740D03*
X1700Y20500D03*
X2460D03*
X35500Y24500D03*
X34740D03*
X10000Y20500D03*
X10760D03*
X13500D03*
X12740D03*
X19750Y21500D03*
X18990D03*
X4140Y9200D03*
X3380D03*
X17750Y1250D03*
X16990D03*
D47*
X7230Y8900D03*
X4260Y1050D03*
Y1810D03*
X8500Y3610D03*
Y2850D03*
X23250Y10250D03*
Y11010D03*
X7230Y9660D03*
X14810Y8900D03*
Y9660D03*
X3250Y2500D03*
Y1740D03*
D48*
X3500Y20500D03*
Y21600D03*
X8250Y10000D03*
Y8900D03*
X9250Y10000D03*
Y8900D03*
X13250Y10000D03*
Y8900D03*
X12250Y10000D03*
Y8900D03*
X11250Y10000D03*
Y8900D03*
X10250Y10000D03*
Y8900D03*
M02*
