G04*
G04 Format:               Gerber RS-274X*
G04 Layer:                BottomSilkscreen*
G04 This File Name:       Mini (Ver 4l 2024).gbo*
G04 Source File Name:     Mini (Ver 4l 2024).rrb*
G04 Unique ID:            144cf20c-75b2-4da8-ba56-680978ed072c*
G04 Generated Date:       Saturday, 19 October 2024 21:14:10*
G04*
G04 Created Using:        Robot Room Copper Connection v2.7.5443*
G04 Software Contact:     http://www.robotroom.com/CopperConnection/Support.aspx*
G04 License Number:       1685*
G04 Student Edition:      true*
G04*
G04 Zero Suppression:     Leading*
G04 Number Precision:     2.4*
G04*
%FSLAX24Y24*%
%MOIN*%
%LNBottomSilkscreen*%
%ADD10C,.006*%
%ADD11C,.0071*%
%ADD12C,.012*%
%ADD13C,.056*%
%ADD14C,.065*%
%ADD15C,.075*%
%ADD16C,.088*%
%ADD17C,.15*%
%ADD18C,.16*%
%ADD19R,.006X.006*%
%ADD20R,.056X.056*%
%ADD21R,.065X.065*%
%ADD22R,.075X.075*%
%ADD23R,.05X.04*%
D10*
G01X8760Y16000D02*
Y15681D01*
G74*
G03X8824Y15618I64J0D01*
G01X8951D01*
G03X9015Y15681I0J64D01*
G01Y16000D01*
X8633Y15936D02*
G03X8569Y16000I64J0D01*
G01X8441D01*
G03X8378Y15936I0J64D01*
G01Y15873D01*
G03X8441Y15809I64J0D01*
G01X8569D01*
X8633Y15745D02*
G03X8569Y15809I64J0D01*
G01X8633Y15745D02*
Y15618D01*
X8378D01*
X23750Y12510D02*
X24069D01*
G03X24132Y12574I0J64D01*
G01Y12701D01*
G03X24069Y12765I64J0D01*
G01X23750D01*
X23941Y12319D02*
G03X23877Y12382I64J0D01*
G01X23814D01*
G03X23750Y12319I0J64D01*
G01Y12191D01*
G03X23814Y12127I64J0D01*
G01X23877D01*
G03X23941Y12191I0J64D01*
G01Y12319D01*
Y12191D02*
G03X24005Y12127I64J0D01*
G01X24069D01*
G03X24132Y12191I0J64D01*
G01Y12319D01*
G03X24069Y12382I64J0D01*
G01X24005D01*
G03X23941Y12319I0J64D01*
G01X40569Y21643D02*
G03X40632Y21706I0J64D01*
G01Y21834D01*
G03X40569Y21898I64J0D01*
G01X40314D01*
G03X40250Y21834I0J64D01*
G01Y21706D01*
G03X40314Y21643I64J0D01*
G01Y21451D02*
X40250Y21388D01*
X40632D01*
Y21451D02*
Y21324D01*
X40569Y21132D02*
X40314D01*
G03X40250Y21069I0J64D01*
G01Y20941D01*
G03X40314Y20878I64J0D01*
G01X40569D01*
G03X40632Y20941I0J64D01*
G01Y21069D01*
G03X40569Y21132I64J0D01*
G01X40314Y20878D01*
X36618Y10660D02*
X37000D01*
X36809Y10787D01*
X37000Y10915D01*
X36618D01*
Y11297D02*
X37000D01*
Y11042D02*
X36809D01*
Y11297D01*
Y11489D02*
G03X36873Y11425I64J0D01*
G01X36936D01*
G03X37000Y11489I0J64D01*
G01Y11616D01*
G03X36936Y11680I64J0D01*
G01X36873D01*
G03X36809Y11616I0J64D01*
G01Y11489D01*
Y11616D02*
G03X36745Y11680I64J0D01*
G01X36681D01*
G03X36618Y11616I0J64D01*
G01Y11489D01*
G03X36681Y11425I64J0D01*
G01X36745D01*
G03X36809Y11489I0J64D01*
G01X37000Y11807D02*
Y12062D01*
Y11935D02*
X36618D01*
X36681Y12190D02*
X36936D01*
G03X37000Y12254I0J64D01*
G01Y12381D01*
G03X36936Y12445I64J0D01*
G01X36681D01*
G03X36618Y12381I0J64D01*
G01Y12254D01*
G03X36681Y12190I64J0D01*
G01X36936Y12445D01*
Y12572D02*
G03X37000Y12636I0J64D01*
G01Y12764D01*
G03X36936Y12827I64J0D01*
G01X36873D01*
G03X36809Y12764I0J64D01*
G01Y12636D01*
X36745Y12572D02*
G03X36809Y12636I0J64D01*
G01X36745Y12572D02*
X36618D01*
Y12827D01*
X36809Y12955D02*
Y13210D01*
X37000Y13337D02*
Y13592D01*
X36618Y13401D01*
X36681Y13720D02*
X36936D01*
G03X37000Y13784I0J64D01*
G01Y13911D01*
G03X36936Y13975I64J0D01*
G01X36681D01*
G03X36618Y13911I0J64D01*
G01Y13784D01*
G03X36681Y13720I64J0D01*
G01X36936Y13975D01*
X37000Y14102D02*
X36618D01*
X37000D02*
Y14294D01*
G03X36936Y14357I64J0D01*
G01X36873D01*
G03X36809Y14294I0J64D01*
G01Y14102D01*
X36681Y14740D02*
G03X36618Y14676I0J64D01*
G01Y14549D01*
G03X36681Y14485I64J0D01*
G01X36936D01*
G03X37000Y14549I0J64D01*
G01Y14676D01*
G03X36936Y14740I64J0D01*
G01Y14931D02*
X37000Y14995D01*
X36618D01*
Y14931D02*
Y15059D01*
X22515Y11500D02*
Y11118D01*
Y11500D02*
X22324D01*
G03X22260Y11436I0J64D01*
G01Y11373D01*
G03X22324Y11309I64J0D01*
G01X22515D01*
X22451D02*
X22260Y11118D01*
X22133Y11245D02*
G03X22069Y11309I64J0D01*
G01X21941D01*
G03X21878Y11245I0J64D01*
G01Y11181D01*
G03X21941Y11118I64J0D01*
G01X22069D01*
G03X22133Y11181I0J64D01*
G01Y11436D01*
G03X22069Y11500I64J0D01*
G01X21941D01*
G03X21878Y11436I0J64D01*
D11*
G01X9475Y15025D02*
G03X9550Y15100I0J75D01*
G01Y15175D01*
G03X9475Y15250I75J0D01*
G01X9325D01*
G03X9250Y15175I0J75D01*
G01Y15100D01*
G03X9325Y15025I75J0D01*
G01X9475D01*
X9325D02*
G03X9250Y14950I0J75D01*
G01Y14875D01*
G03X9325Y14800I75J0D01*
G01X9475D01*
G03X9550Y14875I0J75D01*
G01Y14950D01*
G03X9475Y15025I75J0D01*
G01X9025Y15175D02*
X8950Y15250D01*
Y14800D01*
X9025D02*
X8875D01*
X8350Y15250D02*
X8650D01*
Y15025D01*
X8425D01*
G03X8350Y14950I0J75D01*
G01Y14875D01*
G03X8425Y14800I75J0D01*
G01X8575D01*
G03X8650Y14875I0J75D01*
G01X7900Y15250D02*
X8200D01*
Y15025D01*
X7975D01*
G03X7900Y14950I0J75D01*
G01Y14875D01*
G03X7975Y14800I75J0D01*
G01X8125D01*
G03X8200Y14875I0J75D01*
D12*
G01X24600Y14250D02*
Y16350D01*
X36400D01*
Y11650D01*
X24600D01*
Y13750D01*
X25100D01*
Y14250D01*
X24600D01*
X1850D02*
Y16350D01*
X21650D01*
Y11650D01*
X1850D01*
Y13750D01*
X2350D01*
Y14250D01*
X1850D01*
%LPC*%
D13*
X24000Y13500D03*
X25000D03*
X26000D03*
X27000D03*
X28000D03*
X29000D03*
X30000D03*
X31000D03*
X32000D03*
X33000D03*
X34000D03*
X35000D03*
X36000D03*
Y19500D03*
X35000D03*
X34000D03*
X33000D03*
X32000D03*
X31000D03*
X30000D03*
X29000D03*
X28000D03*
X27000D03*
X26000D03*
X25000D03*
X24000D03*
X23000D03*
X26000Y17000D03*
X27000D03*
X28000D03*
X29000D03*
X30000D03*
X31000D03*
X32000D03*
X33000D03*
X34000D03*
X35000D03*
X36000D03*
Y11000D03*
X35000D03*
X34000D03*
X33000D03*
X32000D03*
X31000D03*
X30000D03*
X29000D03*
X28000D03*
X27000D03*
X26000D03*
X25000D03*
X3250Y13500D03*
X4250D03*
X5250D03*
X6250D03*
X7250D03*
X8250D03*
X9250D03*
X10250D03*
X11250D03*
X12250D03*
X13250D03*
X14250D03*
X15250D03*
X16250D03*
X17250D03*
X18250D03*
X19250D03*
X20250D03*
X21250D03*
Y19500D03*
X20250D03*
X19250D03*
X18250D03*
X17250D03*
X16250D03*
X15250D03*
X14250D03*
X13250D03*
X12250D03*
X11250D03*
X10250D03*
X9250D03*
X8250D03*
X7250D03*
X6250D03*
X5250D03*
X4250D03*
X3250D03*
X2250D03*
X3250Y17000D03*
X4250D03*
X5250D03*
X6250D03*
X7250D03*
X8250D03*
X9250D03*
X10250D03*
X11250D03*
X12250D03*
X13250D03*
X14250D03*
X15250D03*
X16250D03*
X17250D03*
X18250D03*
X19250D03*
X20250D03*
X21250D03*
Y11000D03*
X20250D03*
X19250D03*
X18250D03*
X17250D03*
X16250D03*
X15250D03*
X14250D03*
X13250D03*
X12250D03*
X11250D03*
X10250D03*
X9250D03*
X8250D03*
X7250D03*
X6250D03*
X5250D03*
X4250D03*
X3250D03*
X2250D03*
X15750Y24500D03*
X14750D03*
X13750D03*
X12750D03*
X11750D03*
X10750D03*
Y21500D03*
X11750D03*
X12750D03*
X13750D03*
X14750D03*
X15750D03*
X16750D03*
X24250Y1750D03*
X22250D03*
X23250D03*
X25250D03*
X26250D03*
X27250D03*
X28250D03*
X29250D03*
X30250D03*
Y7750D03*
X29250D03*
X28250D03*
X27250D03*
X26250D03*
X25250D03*
X24250D03*
X23250D03*
X22250D03*
X1460Y22460D03*
X750Y17000D03*
Y16000D03*
Y15000D03*
Y14000D03*
Y13000D03*
Y12000D03*
Y11000D03*
X34250Y1750D03*
X32250D03*
X33250D03*
X35250D03*
X36250D03*
X37250D03*
X38250D03*
X39250D03*
X40250D03*
Y7750D03*
X39250D03*
X38250D03*
X37250D03*
X36250D03*
X35250D03*
X34250D03*
X33250D03*
X32250D03*
X19250D03*
X18250D03*
X17250D03*
X16250D03*
X15250D03*
X14250D03*
X13250D03*
X12250D03*
X11250D03*
Y4750D03*
X12250D03*
X13250D03*
X14250D03*
X15250D03*
X16250D03*
X17250D03*
X18250D03*
X19250D03*
X20250D03*
X37500Y17500D03*
Y16500D03*
Y15500D03*
Y14500D03*
Y13500D03*
Y12500D03*
X40500D03*
Y13500D03*
Y14500D03*
Y15500D03*
Y16500D03*
Y17500D03*
Y18500D03*
X26500Y21500D03*
X27500D03*
X28500D03*
X29500D03*
X30500D03*
X31500D03*
X32500D03*
Y24500D03*
X31500D03*
X30500D03*
X29500D03*
X28500D03*
X27500D03*
X26500D03*
X25500D03*
X36750Y21500D03*
X21390Y21450D03*
D14*
X5250Y21250D03*
X8250D03*
Y24250D03*
X3070Y6370D03*
Y5390D03*
X3850Y6370D03*
D15*
X21250Y9720D03*
D16*
X7250Y3610D03*
Y1050D03*
X5480Y3610D03*
Y1050D03*
X11500Y3610D03*
Y1050D03*
X9730Y3610D03*
Y1050D03*
X7250Y7000D03*
X9810D03*
X7250Y5230D03*
X9810D03*
D17*
X2000Y8250D03*
Y3510D03*
D18*
X1000Y24500D03*
Y1000D03*
X39500Y4500D03*
X40500Y24500D03*
D20*
X23000Y13500D03*
X25000Y17000D03*
X2250Y13500D03*
Y17000D03*
X16750Y24500D03*
X2460Y22460D03*
X750Y18000D03*
X20250Y7750D03*
X37500Y18500D03*
X25500Y21500D03*
X35750D03*
X22390Y21450D03*
D21*
X5250Y24250D03*
X3850Y5390D03*
D22*
X20250Y9720D03*
D23*
X40500Y20250D03*
Y19490D03*
X22060Y9720D03*
Y10480D03*
%LPD*%
D19*
X0Y25500D02*
X41500D01*
Y0D01*
X0D01*
Y25500D01*
M02*
