M48
;
; Format:               Excellon NC Drill Ascii
; This File Name:       Mini (Ver 4l 2024).txt
; Source File Name:     Mini (Ver 4l 2024).rrb
; Unique ID:            144cf20c-75b2-4da8-ba56-680978ed072c
; Generated Date:       Saturday, 19 October 2024 21:14:10
;
; Created Using:        Robot Room Copper Connection v2.7.5443
; Software Contact:     http://www.robotroom.com/CopperConnection/Support.aspx
; License Number:       1685
; Student Edition:      true
;
; Zero Suppression:     Trailing
; Number Precision:     2.4
;
FMAT,2
INCH,LZ
T01C.008
T02C.014
T03C.029
T04C.035
T05C.04
T06C.093
T07C.125
%
T01
X003Y00162
X00425Y00236
X0085
X0115
X01225Y00275
X01325Y003
X01425Y00325
X01525Y0035
X01625Y00375
X01725Y004
X01825Y006
X01925Y00625
X02325Y004
X02375Y005
X02425
X02475Y00475
X02525Y00525
X02575Y0045
X02625Y0055
X02725Y00575
X02825Y006
X02725Y00375
X02675
X02825Y003
X02875Y0035
X02925Y00275
X02975Y00325
X03075Y003
X0315Y00275
X03325Y0035
Y004
X03275Y00525
X03375Y006
X03475Y00575
X03525Y00525
X03625Y0055
X03725Y00575
X0375Y00625
X03775Y0065
X03825Y006
X03725Y00375
X0375Y0035
X03825Y003
X03775Y0025
X03925Y00275
X03575Y004
X03425Y005
X0325Y00875
X02925
X0325Y01425
X0335Y0145
X0345Y01475
X035Y0155
X0355Y015
X0365Y01525
X034Y01575
X033Y016
X031Y0185
X03
X0295Y01775
X028Y01825
X027Y01875
X026Y0205
X025Y02025
X024Y018
X02125Y0205
X02025Y01875
X01925Y0185
X01825Y01825
X01725Y018
X01575
X01625Y02025
X01525Y02225
X01475Y023
X01425Y0225
X01275Y023
X01175Y02275
X00975Y02325
X01075Y0205
X01275
X01025Y01775
X00825Y018
X01075Y0155
X01275Y01525
X01325Y016
X01425Y01575
X01525Y0155
X01625Y01525
X01725Y015
X01825Y01475
X01925Y0145
X02025Y01425
X02207Y01048
X02274Y01025
X02325Y0025
X017Y00125
X0135Y002
X01481Y00966
X01075Y0125
X00722Y00966
X00425Y00925
X005Y007
X00075
X00325Y01525
X00225Y0155
X00625Y015
X01899Y0215
X0235Y02225
X02425Y02375
X0255Y02275
X0265Y023
Y02225
X0275Y0225
X0285
X0295Y02275
X0305Y02325
X0315Y023
X0325Y02325
X03474Y0245
X0375Y0225
X03825Y02275
X03875Y023
X039Y02325
X03675Y0185
X03825Y0175
X03925Y00875
X0285Y02375
T02
X00725Y00236
X0035Y0205
X039Y00975
X0395
T03
X00075Y011
Y012
Y013
Y014
Y015
Y016
Y017
Y018
X00225Y017
X00325
X00425
X00525
X00625
X00725
X00825
X00925
X01025
X01125
X01225
X01325
X01425
X01525
X01625
X01725
X01825
X01925
X02025
X02125
Y0195
X02025
X01925
X01825
X01725
X01625
X01525
X01425
X01325
X01225
X01125
X01025
X00925
X00825
X00725
X00625
X00525
X00425
X00325
X00225
X00246Y02246
X00146
X00225Y0135
X00325
X00425
X00525
X00625
X00725
X00825
X00925
X01025
X01125
X01225
X01325
X01425
X01525
X01625
X01725
X01825
X01925
X02025
X02125
X023
X024
X025
X026
X027
X028
X029
X03
X031
X032
X033
X034
X035
X036
X0375
Y0145
Y0155
Y0165
Y0175
Y0185
X036Y0195
X035
X034
X033
X032
X031
X03
X029
X028
X027
X026
X025
X024
X023
X02239Y02145
X02139
X0255Y0215
X0265
X0275
X0285
X0295
X0305
X0315
X0325
Y0245
X0315
X0305
X0295
X0285
X0275
X0265
X0255
X025Y017
X026
X027
X028
X029
X03
X031
X032
X033
X034
X035
X036
X03575Y0215
X03675
X0405Y0185
Y0175
Y0165
Y0155
Y0145
Y0135
Y0125
X0375
X036Y011
X035
X034
X033
X032
X031
X03
X029
X028
X027
X026
X025
X02525Y00775
X02625
X02725
X02825
X02925
X03025
X03225
X03325
X03425
X03525
X03625
X03725
X03825
X03925
X04025
Y00175
X03925
X03825
X03725
X03625
X03525
X03425
X03325
X03225
X03025
X02925
X02825
X02725
X02625
X02525
X02425
X02325
X02225
X02025Y00475
X01925
X01825
X01725
X01625
X01525
X01425
X01325
X01225
X01125
Y00775
X01225
X01325
X01425
X01525
X01625
X01725
X01825
X01925
X02025
X02225
X02325
X02425
X02125Y011
X02025
X01925
X01825
X01725
X01625
X01525
X01425
X01325
X01225
X01125
X01025
X00925
X00825
X00725
X00625
X00525
X00425
X00325
X00225
X01075Y0215
X01175
X01275
X01375
X01475
X01575
X01675
Y0245
X01575
X01475
X01375
X01275
X01175
X01075
T04
X00307Y00539
X00385
Y00637
X00307
X00525Y02125
Y02425
X00825
Y02125
T05
X00548Y00105
X00725
X00973
X0115
Y00361
X00973
X00981Y00523
Y007
X00725
Y00523
Y00361
X00548
X02025Y00972
X02125
T06
X002Y00351
Y00825
T07
X001Y001
Y0245
X0405
X0395Y0045
M30
