G04*
G04 Format:               Gerber RS-274X*
G04 Layer:                BottomSilkscreen*
G04 This File Name:       Mini (Ver 4l 2024).gbo*
G04 Source File Name:     Mini (Ver 4l 2024).rrb*
G04 Unique ID:            ca1d4337-6a1f-456f-a0cb-244ba17453dc*
G04 Generated Date:       Sunday, 20 October 2024 14:22:25*
G04*
G04 Created Using:        Robot Room Copper Connection v2.7.5443*
G04 Software Contact:     http://www.robotroom.com/CopperConnection/Support.aspx*
G04 License Number:       1685*
G04 Student Edition:      true*
G04*
G04 Zero Suppression:     Leading*
G04 Number Precision:     2.4*
G04*
%FSLAX24Y24*%
%MOIN*%
%LNBottomSilkscreen*%
%ADD10C,.006*%
%ADD11C,.008*%
%ADD12C,.0109*%
%ADD13C,.012*%
%ADD14C,.0189*%
%ADD15C,.026*%
%ADD16C,.031*%
%ADD17C,.056*%
%ADD18C,.065*%
%ADD19C,.075*%
%ADD20C,.088*%
%ADD21C,.15*%
%ADD22C,.16*%
%ADD23R,.006X.006*%
%ADD24R,.056X.056*%
%ADD25R,.065X.065*%
%ADD26R,.075X.075*%
%ADD27R,.05X.04*%
D10*
G01X23750Y11760D02*
X24069D01*
G74*
G03X24132Y11824I0J64D01*
G01Y11951D01*
G03X24069Y12015I64J0D01*
G01X23750D01*
X23941Y11569D02*
G03X23877Y11632I64J0D01*
G01X23814D01*
G03X23750Y11569I0J64D01*
G01Y11441D01*
G03X23814Y11377I64J0D01*
G01X23877D01*
G03X23941Y11441I0J64D01*
G01Y11569D01*
Y11441D02*
G03X24005Y11377I64J0D01*
G01X24069D01*
G03X24132Y11441I0J64D01*
G01Y11569D01*
G03X24069Y11632I64J0D01*
G01X24005D01*
G03X23941Y11569I0J64D01*
G01X40819Y21643D02*
G03X40882Y21706I0J64D01*
G01Y21834D01*
G03X40819Y21898I64J0D01*
G01X40564D01*
G03X40500Y21834I0J64D01*
G01Y21706D01*
G03X40564Y21643I64J0D01*
G01Y21451D02*
X40500Y21388D01*
X40882D01*
Y21451D02*
Y21324D01*
X40819Y21132D02*
X40564D01*
G03X40500Y21069I0J64D01*
G01Y20941D01*
G03X40564Y20878I64J0D01*
G01X40819D01*
G03X40882Y20941I0J64D01*
G01Y21069D01*
G03X40819Y21132I64J0D01*
G01X40564Y20878D01*
X22515Y11180D02*
Y10798D01*
Y11180D02*
X22324D01*
G03X22260Y11116I0J64D01*
G01Y11053D01*
G03X22324Y10989I64J0D01*
G01X22515D01*
X22451D02*
X22260Y10798D01*
X22133Y10925D02*
G03X22069Y10989I64J0D01*
G01X21941D01*
G03X21878Y10925I0J64D01*
G01Y10861D01*
G03X21941Y10798I64J0D01*
G01X22069D01*
G03X22133Y10861I0J64D01*
G01Y11116D01*
G03X22069Y11180I64J0D01*
G01X21941D01*
G03X21878Y11116I0J64D01*
D11*
G01X8680Y15750D02*
Y15325D01*
G03X8765Y15240I85J0D01*
G01X8935D01*
G03X9020Y15325I0J85D01*
G01Y15750D01*
X8510Y15665D02*
G03X8425Y15750I85J0D01*
G01X8255D01*
G03X8170Y15665I0J85D01*
G01Y15580D01*
G03X8255Y15495I85J0D01*
G01X8425D01*
X8510Y15410D02*
G03X8425Y15495I85J0D01*
G01X8510Y15410D02*
Y15240D01*
X8170D01*
D12*
X9924Y14651D02*
G03X10040Y14767I0J116D01*
G01Y14884D01*
G03X9924Y15000I116J0D01*
G01X9691D01*
G03X9575Y14884I0J116D01*
G01Y14767D01*
G03X9691Y14651I116J0D01*
G01X9924D01*
X9691D02*
G03X9575Y14535I0J116D01*
G01Y14419D01*
G03X9691Y14302I116J0D01*
G01X9924D01*
G03X10040Y14419I0J116D01*
G01Y14535D01*
G03X9924Y14651I116J0D01*
G01X9226Y14884D02*
X9110Y15000D01*
Y14302D01*
X9226D02*
X8994D01*
X8180Y15000D02*
X8645D01*
Y14651D01*
X8296D01*
G03X8180Y14535I0J116D01*
G01Y14419D01*
G03X8296Y14302I116J0D01*
G01X8529D01*
G03X8645Y14419I0J116D01*
G01X7483Y15000D02*
X7948D01*
Y14651D01*
X7599D01*
G03X7483Y14535I0J116D01*
G01Y14419D01*
G03X7599Y14302I116J0D01*
G01X7831D01*
G03X7948Y14419I0J116D01*
D13*
G01X24600Y14250D02*
Y16350D01*
X36400D01*
Y11650D01*
X24600D01*
Y13750D01*
X25100D01*
Y14250D01*
X24600D01*
X1850D02*
Y16350D01*
X21650D01*
Y11650D01*
X1850D01*
Y13750D01*
X2350D01*
Y14250D01*
X1850D01*
D14*
X34880Y14197D02*
Y15000D01*
X34612Y14599D01*
X34345Y15000D01*
Y14197D01*
X33542D02*
Y15000D01*
X34077D02*
Y14599D01*
X33542D01*
X33141D02*
G03X33275Y14732I0J134D01*
G01Y14866D01*
G03X33141Y15000I134J0D01*
G01X32874D01*
G03X32740Y14866I0J134D01*
G01Y14732D01*
G03X32874Y14599I134J0D01*
G01X33141D01*
X32874D02*
G03X32740Y14465I0J134D01*
G01Y14331D01*
G03X32874Y14197I134J0D01*
G01X33141D01*
G03X33275Y14331I0J134D01*
G01Y14465D01*
G03X33141Y14599I134J0D01*
G01X32472Y15000D02*
X31937D01*
X32205D02*
Y14197D01*
X31670Y14331D02*
Y14866D01*
G03X31536Y15000I134J0D01*
G01X31269D01*
G03X31135Y14866I0J134D01*
G01Y14331D01*
G03X31269Y14197I134J0D01*
G01X31536D01*
G03X31670Y14331I0J134D01*
G01X31135Y14866D01*
X30867D02*
G03X30734Y15000I134J0D01*
G01X30466D01*
G03X30332Y14866I0J134D01*
G01Y14732D01*
G03X30466Y14599I134J0D01*
G01X30734D01*
X30867Y14465D02*
G03X30734Y14599I134J0D01*
G01X30867Y14465D02*
Y14197D01*
X30332D01*
X30065Y14599D02*
X29530D01*
X29262Y15000D02*
X28727D01*
X29129Y14197D01*
X28460Y14331D02*
Y14866D01*
G03X28326Y15000I134J0D01*
G01X28059D01*
G03X27925Y14866I0J134D01*
G01Y14331D01*
G03X28059Y14197I134J0D01*
G01X28326D01*
G03X28460Y14331I0J134D01*
G01X27925Y14866D01*
X27657Y15000D02*
Y14197D01*
Y15000D02*
X27256D01*
G03X27122Y14866I0J134D01*
G01Y14732D01*
G03X27256Y14599I134J0D01*
G01X27657D01*
X26320Y14331D02*
G03X26454Y14197I134J0D01*
G01X26721D01*
G03X26855Y14331I0J134D01*
G01Y14866D01*
G03X26721Y15000I134J0D01*
G01X26454D01*
G03X26320Y14866I0J134D01*
G01X25919D02*
X25785Y15000D01*
Y14197D01*
X25919D02*
X25651D01*
%LPC*%
D15*
X10750Y20500D03*
X27000Y18750D03*
X34750Y5750D03*
X22070Y10480D03*
X10250Y17750D03*
X29500Y22750D03*
X6250Y15000D03*
X12750Y20500D03*
X16250Y15250D03*
X32500Y8750D03*
X33750Y6000D03*
X7220Y9660D03*
X3250Y15250D03*
X14750Y23000D03*
X12750D03*
X32750Y5250D03*
X13500Y2000D03*
X31500Y2750D03*
X26000Y20500D03*
X12750Y15250D03*
X21250Y20500D03*
X30000Y18500D03*
X2250Y15500D03*
X10750D03*
X37250Y5750D03*
X36250Y5500D03*
X35250Y5250D03*
X34250Y5000D03*
X23250Y4000D03*
X33250D03*
X27250Y3750D03*
X38250Y3000D03*
X37250Y3750D03*
X38750Y2500D03*
X30750Y3000D03*
X29500Y17750D03*
X23250Y10250D03*
X35750Y4000D03*
X29750Y3250D03*
X28250Y3000D03*
X29250Y2750D03*
X28750Y3500D03*
X14250Y22500D03*
X15250Y22250D03*
X3250Y2500D03*
X23500Y22250D03*
X26750Y3750D03*
X33250Y3500D03*
X34740Y24500D03*
X25750Y4500D03*
X19250Y6000D03*
X25500Y22750D03*
X23750Y5000D03*
Y6000D03*
X26500Y23000D03*
X15250Y15500D03*
X35000D03*
X11750Y22750D03*
X10750Y12500D03*
X14250Y15750D03*
X16250Y20250D03*
X25000D03*
X24000Y18000D03*
X34000Y15750D03*
X28000Y18250D03*
X13250Y16000D03*
X33000D03*
X9750Y23250D03*
X14810Y9660D03*
X3250Y1750D03*
X18990Y21500D03*
X36500Y15250D03*
X17250Y15000D03*
X35500D03*
X18250Y14750D03*
X34500D03*
X19250Y14500D03*
X33500D03*
X20250Y14250D03*
X24250Y23750D03*
X4540Y9200D03*
X17000Y1250D03*
X32500Y14250D03*
D16*
X3500Y20500D03*
D17*
X24000Y13500D03*
X25000D03*
X26000D03*
X27000D03*
X28000D03*
X29000D03*
X30000D03*
X31000D03*
X32000D03*
X33000D03*
X34000D03*
X35000D03*
X36000D03*
Y19500D03*
X35000D03*
X34000D03*
X33000D03*
X32000D03*
X31000D03*
X30000D03*
X29000D03*
X28000D03*
X27000D03*
X26000D03*
X25000D03*
X24000D03*
X23000D03*
X26000Y17000D03*
X27000D03*
X28000D03*
X29000D03*
X30000D03*
X31000D03*
X32000D03*
X33000D03*
X34000D03*
X35000D03*
X36000D03*
Y11000D03*
X35000D03*
X34000D03*
X33000D03*
X32000D03*
X31000D03*
X30000D03*
X29000D03*
X28000D03*
X27000D03*
X26000D03*
X25000D03*
X3250Y13500D03*
X4250D03*
X5250D03*
X6250D03*
X7250D03*
X8250D03*
X9250D03*
X10250D03*
X11250D03*
X12250D03*
X13250D03*
X14250D03*
X15250D03*
X16250D03*
X17250D03*
X18250D03*
X19250D03*
X20250D03*
X21250D03*
Y19500D03*
X20250D03*
X19250D03*
X18250D03*
X17250D03*
X16250D03*
X15250D03*
X14250D03*
X13250D03*
X12250D03*
X11250D03*
X10250D03*
X9250D03*
X8250D03*
X7250D03*
X6250D03*
X5250D03*
X4250D03*
X3250D03*
X2250D03*
X3250Y17000D03*
X4250D03*
X5250D03*
X6250D03*
X7250D03*
X8250D03*
X9250D03*
X10250D03*
X11250D03*
X12250D03*
X13250D03*
X14250D03*
X15250D03*
X16250D03*
X17250D03*
X18250D03*
X19250D03*
X20250D03*
X21250D03*
Y11000D03*
X20250D03*
X19250D03*
X18250D03*
X17250D03*
X16250D03*
X15250D03*
X14250D03*
X13250D03*
X12250D03*
X11250D03*
X10250D03*
X9250D03*
X8250D03*
X7250D03*
X6250D03*
X5250D03*
X4250D03*
X3250D03*
X2250D03*
X15750Y24500D03*
X14750D03*
X13750D03*
X12750D03*
X11750D03*
X10750D03*
Y21500D03*
X11750D03*
X12750D03*
X13750D03*
X14750D03*
X15750D03*
X16750D03*
X24250Y1750D03*
X22250D03*
X23250D03*
X25250D03*
X26250D03*
X27250D03*
X28250D03*
X29250D03*
X30250D03*
Y7750D03*
X29250D03*
X28250D03*
X27250D03*
X26250D03*
X25250D03*
X24250D03*
X23250D03*
X22250D03*
X1460Y22460D03*
X750Y17000D03*
Y16000D03*
Y15000D03*
Y14000D03*
Y13000D03*
Y12000D03*
Y11000D03*
X34250Y1750D03*
X32250D03*
X33250D03*
X35250D03*
X36250D03*
X37250D03*
X38250D03*
X39250D03*
X40250D03*
Y7750D03*
X39250D03*
X38250D03*
X37250D03*
X36250D03*
X35250D03*
X34250D03*
X33250D03*
X32250D03*
X19250D03*
X18250D03*
X17250D03*
X16250D03*
X15250D03*
X14250D03*
X13250D03*
X12250D03*
X11250D03*
Y4750D03*
X12250D03*
X13250D03*
X14250D03*
X15250D03*
X16250D03*
X17250D03*
X18250D03*
X19250D03*
X20250D03*
X37500Y17500D03*
Y16500D03*
Y15500D03*
Y14500D03*
Y13500D03*
Y12500D03*
X40500D03*
Y13500D03*
Y14500D03*
Y15500D03*
Y16500D03*
Y17500D03*
Y18500D03*
X26500Y21500D03*
X27500D03*
X28500D03*
X29500D03*
X30500D03*
X31500D03*
X32500D03*
Y24500D03*
X31500D03*
X30500D03*
X29500D03*
X28500D03*
X27500D03*
X26500D03*
X25500D03*
X36750Y21500D03*
X21390Y21450D03*
X21250Y11890D03*
X20250D03*
X19250D03*
X18250D03*
X17250D03*
X16250D03*
X15250D03*
D18*
X5250Y21250D03*
X8250D03*
Y24250D03*
X3070Y6370D03*
Y5390D03*
X3850Y6370D03*
D19*
X21250Y9720D03*
D20*
X7250Y3610D03*
Y1050D03*
X5480Y3610D03*
Y1050D03*
X11500Y3610D03*
Y1050D03*
X9730Y3610D03*
Y1050D03*
X7250Y7000D03*
X9810D03*
X7250Y5230D03*
X9810D03*
D21*
X2000Y8250D03*
Y3510D03*
D22*
X1000Y24500D03*
Y1000D03*
X40350Y4030D03*
X40500Y24500D03*
D24*
X23000Y13500D03*
X25000Y17000D03*
X2250Y13500D03*
Y17000D03*
X16750Y24500D03*
X2460Y22460D03*
X750Y18000D03*
X20250Y7750D03*
X37500Y18500D03*
X25500Y21500D03*
X35750D03*
X22390Y21450D03*
X22250Y11890D03*
D25*
X5250Y24250D03*
X3850Y5390D03*
D26*
X5030Y7840D03*
X20250Y9720D03*
D27*
X40500Y20250D03*
Y19490D03*
X22060Y9720D03*
Y10480D03*
%LPD*%
D23*
X0Y25500D02*
X41500D01*
Y0D01*
X0D01*
Y25500D01*
M02*
