G04*
G04 Format:               Gerber RS-274X*
G04 Layer:                TopSolderMask*
G04 This File Name:       Mini (Ver 4l 2024).gts*
G04 Source File Name:     Mini (Ver 4l 2024).rrb*
G04 Unique ID:            144cf20c-75b2-4da8-ba56-680978ed072c*
G04 Generated Date:       Saturday, 19 October 2024 21:14:10*
G04*
G04 Created Using:        Robot Room Copper Connection v2.7.5443*
G04 Software Contact:     http://www.robotroom.com/CopperConnection/Support.aspx*
G04 License Number:       1685*
G04 Student Edition:      true*
G04*
G04 Zero Suppression:     Leading*
G04 Number Precision:     2.4*
G04*
G04 Polarity:             Negative. Dark is solderable. Clear space is coating.*
G04*
%FSLAX24Y24*%
%MOIN*%
%LNTopSolderMask*%
%ADD10C,.066*%
%ADD11C,.075*%
%ADD12C,.085*%
%ADD13C,.098*%
%ADD14C,.16*%
%ADD15C,.17*%
%ADD16R,.006X.006*%
%ADD17R,.066X.066*%
%ADD18R,.075X.075*%
%ADD19R,.085X.085*%
%ADD20R,.05X.06*%
%ADD21R,.06X.05*%
%ADD22R,.065X.07*%
D10*
G01X24000Y13500D03*
X25000D03*
X26000D03*
X27000D03*
X28000D03*
X29000D03*
X30000D03*
X31000D03*
X32000D03*
X33000D03*
X34000D03*
X35000D03*
X36000D03*
Y19500D03*
X35000D03*
X34000D03*
X33000D03*
X32000D03*
X31000D03*
X30000D03*
X29000D03*
X28000D03*
X27000D03*
X26000D03*
X25000D03*
X24000D03*
X23000D03*
X26000Y17000D03*
X27000D03*
X28000D03*
X29000D03*
X30000D03*
X31000D03*
X32000D03*
X33000D03*
X34000D03*
X35000D03*
X36000D03*
Y11000D03*
X35000D03*
X34000D03*
X33000D03*
X32000D03*
X31000D03*
X30000D03*
X29000D03*
X28000D03*
X27000D03*
X26000D03*
X25000D03*
X3250Y13500D03*
X4250D03*
X5250D03*
X6250D03*
X7250D03*
X8250D03*
X9250D03*
X10250D03*
X11250D03*
X12250D03*
X13250D03*
X14250D03*
X15250D03*
X16250D03*
X17250D03*
X18250D03*
X19250D03*
X20250D03*
X21250D03*
Y19500D03*
X20250D03*
X19250D03*
X18250D03*
X17250D03*
X16250D03*
X15250D03*
X14250D03*
X13250D03*
X12250D03*
X11250D03*
X10250D03*
X9250D03*
X8250D03*
X7250D03*
X6250D03*
X5250D03*
X4250D03*
X3250D03*
X2250D03*
X3250Y17000D03*
X4250D03*
X5250D03*
X6250D03*
X7250D03*
X8250D03*
X9250D03*
X10250D03*
X11250D03*
X12250D03*
X13250D03*
X14250D03*
X15250D03*
X16250D03*
X17250D03*
X18250D03*
X19250D03*
X20250D03*
X21250D03*
Y11000D03*
X20250D03*
X19250D03*
X18250D03*
X17250D03*
X16250D03*
X15250D03*
X14250D03*
X13250D03*
X12250D03*
X11250D03*
X10250D03*
X9250D03*
X8250D03*
X7250D03*
X6250D03*
X5250D03*
X4250D03*
X3250D03*
X2250D03*
X15750Y24500D03*
X14750D03*
X13750D03*
X12750D03*
X11750D03*
X10750D03*
Y21500D03*
X11750D03*
X12750D03*
X13750D03*
X14750D03*
X15750D03*
X16750D03*
X24250Y1750D03*
X22250D03*
X23250D03*
X25250D03*
X26250D03*
X27250D03*
X28250D03*
X29250D03*
X30250D03*
Y7750D03*
X29250D03*
X28250D03*
X27250D03*
X26250D03*
X25250D03*
X24250D03*
X23250D03*
X22250D03*
X1460Y22460D03*
X750Y17000D03*
Y16000D03*
Y15000D03*
Y14000D03*
Y13000D03*
Y12000D03*
Y11000D03*
X34250Y1750D03*
X32250D03*
X33250D03*
X35250D03*
X36250D03*
X37250D03*
X38250D03*
X39250D03*
X40250D03*
Y7750D03*
X39250D03*
X38250D03*
X37250D03*
X36250D03*
X35250D03*
X34250D03*
X33250D03*
X32250D03*
X19250D03*
X18250D03*
X17250D03*
X16250D03*
X15250D03*
X14250D03*
X13250D03*
X12250D03*
X11250D03*
Y4750D03*
X12250D03*
X13250D03*
X14250D03*
X15250D03*
X16250D03*
X17250D03*
X18250D03*
X19250D03*
X20250D03*
X37500Y17500D03*
Y16500D03*
Y15500D03*
Y14500D03*
Y13500D03*
Y12500D03*
X40500D03*
Y13500D03*
Y14500D03*
Y15500D03*
Y16500D03*
Y17500D03*
Y18500D03*
X26500Y21500D03*
X27500D03*
X28500D03*
X29500D03*
X30500D03*
X31500D03*
X32500D03*
Y24500D03*
X31500D03*
X30500D03*
X29500D03*
X28500D03*
X27500D03*
X26500D03*
X25500D03*
X36750Y21500D03*
X21390Y21450D03*
D11*
X5250Y21250D03*
X8250D03*
Y24250D03*
X3070Y6370D03*
Y5390D03*
X3850Y6370D03*
D12*
X21250Y9720D03*
D13*
X7250Y3610D03*
Y1050D03*
X5480Y3610D03*
Y1050D03*
X11500Y3610D03*
Y1050D03*
X9730Y3610D03*
Y1050D03*
X7250Y7000D03*
X9810D03*
X7250Y5230D03*
X9810D03*
D14*
X2000Y8250D03*
Y3510D03*
D15*
X1000Y24500D03*
Y1000D03*
X39500Y4500D03*
X40500Y24500D03*
D17*
X23000Y13500D03*
X25000Y17000D03*
X2250Y13500D03*
Y17000D03*
X16750Y24500D03*
X2460Y22460D03*
X750Y18000D03*
X20250Y7750D03*
X37500Y18500D03*
X25500Y21500D03*
X35750D03*
X22390Y21450D03*
D18*
X5250Y24250D03*
X3850Y5390D03*
D19*
X20250Y9720D03*
D20*
X19000Y8750D03*
X18240D03*
X12750Y2000D03*
X13510D03*
X1700Y20500D03*
X2460D03*
X35500Y24500D03*
X34740D03*
X10000Y20500D03*
X10760D03*
X13500D03*
X12740D03*
X19750Y21500D03*
X18990D03*
X5010Y9250D03*
X4250D03*
X17750Y1250D03*
X16990D03*
D21*
X7230Y8900D03*
X4250Y1600D03*
Y2360D03*
X8500Y1600D03*
Y2360D03*
X22740Y10240D03*
Y11000D03*
X7230Y9660D03*
X14810Y8900D03*
Y9660D03*
X3000Y2360D03*
Y1600D03*
D22*
X3500Y20500D03*
Y21600D03*
X8250Y10000D03*
Y8900D03*
X9250Y10000D03*
Y8900D03*
X13250Y10000D03*
Y8900D03*
X12250Y10000D03*
Y8900D03*
X11250Y10000D03*
Y8900D03*
X10250Y10000D03*
Y8900D03*
M02*
