G04*
G04 Format:               Gerber RS-274X*
G04 Layer:                TopSilkscreen*
G04 This File Name:       Mini (Ver 4l 2024).gto*
G04 Source File Name:     Mini (Ver 4l 2024).rrb*
G04 Unique ID:            144cf20c-75b2-4da8-ba56-680978ed072c*
G04 Generated Date:       Saturday, 19 October 2024 21:14:10*
G04*
G04 Created Using:        Robot Room Copper Connection v2.7.5443*
G04 Software Contact:     http://www.robotroom.com/CopperConnection/Support.aspx*
G04 License Number:       1685*
G04 Student Edition:      true*
G04*
G04 Zero Suppression:     Leading*
G04 Number Precision:     2.4*
G04*
%FSLAX24Y24*%
%MOIN*%
%LNTopSilkscreen*%
%ADD10C,.006*%
%ADD11C,.0071*%
%ADD12C,.0079*%
%ADD13C,.009*%
%ADD14C,.0094*%
%ADD15C,.01*%
%ADD16C,.0109*%
%ADD17C,.012*%
%ADD18C,.0126*%
%ADD19C,.0141*%
%ADD20C,.056*%
%ADD21C,.065*%
%ADD22C,.075*%
%ADD23C,.088*%
%ADD24C,.15*%
%ADD25C,.16*%
%ADD26R,.006X.006*%
%ADD27R,.056X.056*%
%ADD28R,.065X.065*%
%ADD29R,.075X.075*%
%ADD30R,.04X.05*%
%ADD31R,.05X.04*%
%ADD32R,.055X.06*%
D10*
G01X5660Y4600D02*
Y4218D01*
Y4409D02*
X5915D01*
Y4600D02*
Y4218D01*
X6042Y4281D02*
Y4536D01*
G74*
G02X6106Y4600I64J0D01*
G01X6234D01*
G02X6298Y4536I0J64D01*
G01Y4281D01*
G02X6234Y4218I64J0D01*
G01X6106D01*
G02X6042Y4281I0J64D01*
G01X6680Y4600D02*
Y4281D01*
G02X6616Y4218I64J0D01*
G01X6489D01*
G02X6425Y4281I0J64D01*
G01Y4600D01*
X6807D02*
Y4218D01*
Y4600D02*
X6999D01*
G02X7062Y4536I0J64D01*
G01Y4473D01*
G02X6999Y4409I64J0D01*
G01X6807D01*
X6871D02*
X7062Y4218D01*
X10000Y4078D02*
Y4460D01*
X10127Y4269D01*
X10255Y4460D01*
Y4078D01*
X10446Y4460D02*
X10574D01*
X10510D02*
Y4078D01*
X10446D02*
X10574D01*
X10765D02*
Y4460D01*
X11020Y4078D01*
Y4460D01*
X30191Y6191D02*
Y6255D01*
X30319D01*
G02X30382Y6191I0J64D01*
G01Y6064D01*
G02X30319Y6000I64J0D01*
G01X30064D01*
G02X30000Y6064I0J64D01*
G01Y6191D01*
G02X30064Y6255I64J0D01*
G01X30382Y6383D02*
X30000D01*
X30382Y6637D01*
X30000D01*
Y6765D02*
Y6956D01*
G02X30064Y7020I64J0D01*
G01X30319D01*
G02X30382Y6956I0J64D01*
G01Y6765D01*
X30000D01*
Y2250D02*
X30382Y2378D01*
X30000Y2505D01*
Y2633D02*
Y2824D01*
G02X30064Y2887I64J0D01*
G01X30319D01*
G02X30382Y2824I0J64D01*
G01Y2633D01*
X30000D01*
Y3015D02*
Y3206D01*
G02X30064Y3270I64J0D01*
G01X30319D01*
G02X30382Y3206I0J64D01*
G01Y3015D01*
X30000D01*
X22319Y2505D02*
G02X22382Y2441I0J64D01*
G01Y2314D01*
G02X22319Y2250I64J0D01*
G01X22064D01*
G02X22000Y2314I0J64D01*
G01Y2441D01*
G02X22064Y2505I64J0D01*
G01X22000Y2887D02*
Y2633D01*
X22382D01*
Y2887D01*
X22191Y2633D02*
Y2824D01*
X22064Y3079D02*
X22000Y3142D01*
X22382D01*
Y3079D02*
Y3206D01*
X23319Y2505D02*
G02X23383Y2441I0J64D01*
G01Y2314D01*
G02X23319Y2250I64J0D01*
G01X23064D01*
G02X23000Y2314I0J64D01*
G01Y2441D01*
G02X23064Y2505I64J0D01*
G01X23000Y2887D02*
Y2633D01*
X23383D01*
Y2887D01*
X23191Y2633D02*
Y2824D01*
X23064Y3015D02*
G02X23000Y3079I0J64D01*
G01Y3206D01*
G02X23064Y3270I64J0D01*
G01X23128D01*
G02X23191Y3206I0J64D01*
G01Y3079D01*
X23255Y3015D02*
G02X23191Y3079I0J64D01*
G01X23255Y3015D02*
X23383D01*
Y3270D01*
X24319Y2505D02*
G02X24382Y2441I0J64D01*
G01Y2314D01*
G02X24319Y2250I64J0D01*
G01X24064D01*
G02X24000Y2314I0J64D01*
G01Y2441D01*
G02X24064Y2505I64J0D01*
G01X24000Y2633D02*
X24382D01*
Y2887D01*
X24000Y3015D02*
X24382D01*
X24000D02*
Y3206D01*
G02X24064Y3270I64J0D01*
G01X24127D01*
G02X24191Y3206I0J64D01*
G01Y3015D01*
Y3079D02*
X24382Y3270D01*
X25319Y2505D02*
G02X25382Y2441I0J64D01*
G01Y2314D01*
G02X25319Y2250I64J0D01*
G01X25064D01*
G02X25000Y2314I0J64D01*
G01Y2441D01*
G02X25064Y2505I64J0D01*
G01X25000Y2887D02*
X25319D01*
G02X25382Y2824I0J64D01*
G01Y2696D01*
G02X25319Y2633I64J0D01*
G01X25000D01*
Y3270D02*
Y3015D01*
X25382D01*
Y3270D01*
X25191Y3015D02*
Y3206D01*
X26319Y2505D02*
G02X26383Y2441I0J64D01*
G01Y2314D01*
G02X26319Y2250I64J0D01*
G01X26064D01*
G02X26000Y2314I0J64D01*
G01Y2441D01*
G02X26064Y2505I64J0D01*
G01X26000Y2887D02*
X26319D01*
G02X26383Y2824I0J64D01*
G01Y2696D01*
G02X26319Y2633I64J0D01*
G01X26000D01*
X27000Y2505D02*
X27319D01*
G02X27383Y2441I0J64D01*
X27319Y2378I64J0D01*
G01X27191D01*
X27319D01*
G02X27383Y2314I0J64D01*
X27319Y2250I64J0D01*
G01X27000D01*
Y2633D02*
X27383D01*
X27000D02*
Y2824D01*
G02X27064Y2887I64J0D01*
G01X27128D01*
G02X27191Y2824I0J64D01*
G01Y2633D01*
Y2696D02*
X27383Y2887D01*
X29502Y2320D02*
X29184D01*
G02X29120Y2384I0J64D01*
G01Y2511D01*
G02X29184Y2575I64J0D01*
G01X29502D01*
X29311Y2320D02*
Y2575D01*
X29439Y2702D02*
X29184D01*
G02X29120Y2766I0J64D01*
G01Y2894D01*
G02X29184Y2957I64J0D01*
G01X29439D01*
G02X29502Y2894I0J64D01*
G01Y2766D01*
G02X29439Y2702I64J0D01*
G01X29184Y2957D01*
X28472Y2280D02*
X28154D01*
G02X28090Y2344I0J64D01*
G01Y2471D01*
G02X28154Y2535I64J0D01*
G01X28472D01*
X28281Y2280D02*
Y2535D01*
X28154Y2726D02*
X28090Y2790D01*
X28472D01*
Y2726D02*
Y2854D01*
X22000Y6500D02*
Y6691D01*
G02X22064Y6755I64J0D01*
G01X22127D01*
G02X22191Y6691I0J64D01*
G01Y6500D01*
Y6691D02*
G02X22255Y6755I64J0D01*
G01X22319D01*
G02X22382Y6691I0J64D01*
G01Y6500D01*
X22000D01*
Y6883D02*
X22382D01*
Y7138D01*
X23000Y6500D02*
Y6691D01*
G02X23064Y6755I64J0D01*
G01X23319D01*
G02X23383Y6691I0J64D01*
G01Y6500D01*
X23000D01*
X23383Y7138D02*
X23000D01*
Y6883D02*
X23191D01*
Y7138D01*
X24000Y6500D02*
Y6691D01*
G02X24064Y6755I64J0D01*
G01X24319D01*
G02X24382Y6691I0J64D01*
G01Y6500D01*
X24000D01*
Y7138D02*
Y6883D01*
X24191D01*
Y7074D01*
G02X24255Y7138I64J0D01*
G01X24319D01*
G02X24382Y7074I0J64D01*
G01Y6946D01*
G02X24319Y6883I64J0D01*
G01X25000Y6500D02*
Y6691D01*
G02X25064Y6755I64J0D01*
G01X25319D01*
G02X25382Y6691I0J64D01*
G01Y6500D01*
X25000D01*
X25255Y6883D02*
G02X25191Y6946I0J64D01*
G01Y7074D01*
G02X25255Y7138I64J0D01*
G01X25319D01*
G02X25382Y7074I0J64D01*
G01Y6946D01*
G02X25319Y6883I64J0D01*
G01X25064D01*
G02X25000Y6946I0J64D01*
G01Y7074D01*
G02X25064Y7138I64J0D01*
G01X26000Y6500D02*
Y6691D01*
G02X26064Y6755I64J0D01*
G01X26319D01*
G02X26383Y6691I0J64D01*
G01Y6500D01*
X26000D01*
X26064Y6883D02*
G02X26000Y6946I0J64D01*
G01Y7074D01*
G02X26064Y7138I64J0D01*
G01X26128D01*
G02X26191Y7074I0J64D01*
G01Y7010D01*
Y7074D02*
G02X26255Y7138I64J0D01*
G01X26319D01*
G02X26383Y7074I0J64D01*
G01Y6946D01*
G02X26319Y6883I64J0D01*
G01X27000Y6500D02*
Y6691D01*
G02X27064Y6755I64J0D01*
G01X27319D01*
G02X27383Y6691I0J64D01*
G01Y6500D01*
X27000D01*
X27064Y6883D02*
G02X27000Y6946I0J64D01*
G01Y7074D01*
G02X27064Y7138I64J0D01*
G01X27128D01*
G02X27191Y7074I0J64D01*
G01Y6946D01*
X27255Y6883D02*
G02X27191Y6946I0J64D01*
G01X27255Y6883D02*
X27383D01*
Y7138D01*
X28000Y6500D02*
Y6691D01*
G02X28064Y6755I64J0D01*
G01X28319D01*
G02X28382Y6691I0J64D01*
G01Y6500D01*
X28000D01*
X28064Y6946D02*
X28000Y7010D01*
X28382D01*
Y6946D02*
Y7074D01*
X29000Y6500D02*
Y6691D01*
G02X29064Y6755I64J0D01*
G01X29319D01*
G02X29382Y6691I0J64D01*
G01Y6500D01*
X29000D01*
X29319Y6883D02*
X29064D01*
G02X29000Y6946I0J64D01*
G01Y7074D01*
G02X29064Y7138I64J0D01*
G01X29319D01*
G02X29382Y7074I0J64D01*
G01Y6946D01*
G02X29319Y6883I64J0D01*
G01X29064Y7138D01*
X40191Y6191D02*
Y6255D01*
X40319D01*
G02X40382Y6191I0J64D01*
G01Y6064D01*
G02X40319Y6000I64J0D01*
G01X40064D01*
G02X40000Y6064I0J64D01*
G01Y6191D01*
G02X40064Y6255I64J0D01*
G01X40382Y6383D02*
X40000D01*
X40382Y6637D01*
X40000D01*
Y6765D02*
Y6956D01*
G02X40064Y7020I64J0D01*
G01X40319D01*
G02X40382Y6956I0J64D01*
G01Y6765D01*
X40000D01*
Y2250D02*
X40382Y2378D01*
X40000Y2505D01*
Y2633D02*
Y2824D01*
G02X40064Y2887I64J0D01*
G01X40319D01*
G02X40382Y2824I0J64D01*
G01Y2633D01*
X40000D01*
Y3015D02*
Y3206D01*
G02X40064Y3270I64J0D01*
G01X40319D01*
G02X40382Y3206I0J64D01*
G01Y3015D01*
X40000D01*
X32319Y2505D02*
G02X32383Y2441I0J64D01*
G01Y2314D01*
G02X32319Y2250I64J0D01*
G01X32064D01*
G02X32000Y2314I0J64D01*
G01Y2441D01*
G02X32064Y2505I64J0D01*
G01X32000Y2887D02*
Y2633D01*
X32383D01*
Y2887D01*
X32191Y2633D02*
Y2824D01*
X32064Y3079D02*
X32000Y3142D01*
X32383D01*
Y3079D02*
Y3206D01*
X33319Y2505D02*
G02X33382Y2441I0J64D01*
G01Y2314D01*
G02X33319Y2250I64J0D01*
G01X33064D01*
G02X33000Y2314I0J64D01*
G01Y2441D01*
G02X33064Y2505I64J0D01*
G01X33000Y2887D02*
Y2633D01*
X33382D01*
Y2887D01*
X33191Y2633D02*
Y2824D01*
X33064Y3015D02*
G02X33000Y3079I0J64D01*
G01Y3206D01*
G02X33064Y3270I64J0D01*
G01X33127D01*
G02X33191Y3206I0J64D01*
G01Y3079D01*
X33255Y3015D02*
G02X33191Y3079I0J64D01*
G01X33255Y3015D02*
X33382D01*
Y3270D01*
X34319Y2505D02*
G02X34382Y2441I0J64D01*
G01Y2314D01*
G02X34319Y2250I64J0D01*
G01X34064D01*
G02X34000Y2314I0J64D01*
G01Y2441D01*
G02X34064Y2505I64J0D01*
G01X34000Y2633D02*
X34382D01*
Y2887D01*
X34000Y3015D02*
X34382D01*
X34000D02*
Y3206D01*
G02X34064Y3270I64J0D01*
G01X34127D01*
G02X34191Y3206I0J64D01*
G01Y3015D01*
Y3079D02*
X34382Y3270D01*
X35319Y2505D02*
G02X35382Y2441I0J64D01*
G01Y2314D01*
G02X35319Y2250I64J0D01*
G01X35064D01*
G02X35000Y2314I0J64D01*
G01Y2441D01*
G02X35064Y2505I64J0D01*
G01X35000Y2887D02*
X35319D01*
G02X35382Y2824I0J64D01*
G01Y2696D01*
G02X35319Y2633I64J0D01*
G01X35000D01*
Y3270D02*
Y3015D01*
X35382D01*
Y3270D01*
X35191Y3015D02*
Y3206D01*
X36319Y2505D02*
G02X36383Y2441I0J64D01*
G01Y2314D01*
G02X36319Y2250I64J0D01*
G01X36064D01*
G02X36000Y2314I0J64D01*
G01Y2441D01*
G02X36064Y2505I64J0D01*
G01X36000Y2887D02*
X36319D01*
G02X36383Y2824I0J64D01*
G01Y2696D01*
G02X36319Y2633I64J0D01*
G01X36000D01*
X37000Y2505D02*
X37319D01*
G02X37383Y2441I0J64D01*
X37319Y2378I64J0D01*
G01X37191D01*
X37319D01*
G02X37383Y2314I0J64D01*
X37319Y2250I64J0D01*
G01X37000D01*
Y2633D02*
X37383D01*
X37000D02*
Y2824D01*
G02X37064Y2887I64J0D01*
G01X37128D01*
G02X37191Y2824I0J64D01*
G01Y2633D01*
Y2696D02*
X37383Y2887D01*
X39502Y2320D02*
X39184D01*
G02X39120Y2384I0J64D01*
G01Y2511D01*
G02X39184Y2575I64J0D01*
G01X39502D01*
X39311Y2320D02*
Y2575D01*
X39439Y2702D02*
X39184D01*
G02X39120Y2766I0J64D01*
G01Y2894D01*
G02X39184Y2957I64J0D01*
G01X39439D01*
G02X39502Y2894I0J64D01*
G01Y2766D01*
G02X39439Y2702I64J0D01*
G01X39184Y2957D01*
X38472Y2280D02*
X38154D01*
G02X38090Y2344I0J64D01*
G01Y2471D01*
G02X38154Y2535I64J0D01*
G01X38472D01*
X38281Y2280D02*
Y2535D01*
X38154Y2726D02*
X38090Y2790D01*
X38472D01*
Y2726D02*
Y2854D01*
X32000Y6500D02*
Y6691D01*
G02X32064Y6755I64J0D01*
G01X32128D01*
G02X32191Y6691I0J64D01*
G01Y6500D01*
Y6691D02*
G02X32255Y6755I64J0D01*
G01X32319D01*
G02X32383Y6691I0J64D01*
G01Y6500D01*
X32000D01*
Y6883D02*
X32383D01*
Y7138D01*
X33000Y6500D02*
Y6691D01*
G02X33064Y6755I64J0D01*
G01X33319D01*
G02X33382Y6691I0J64D01*
G01Y6500D01*
X33000D01*
X33382Y7138D02*
X33000D01*
Y6883D02*
X33191D01*
Y7138D01*
X34000Y6500D02*
Y6691D01*
G02X34064Y6755I64J0D01*
G01X34319D01*
G02X34382Y6691I0J64D01*
G01Y6500D01*
X34000D01*
Y7138D02*
Y6883D01*
X34191D01*
Y7074D01*
G02X34255Y7138I64J0D01*
G01X34319D01*
G02X34382Y7074I0J64D01*
G01Y6946D01*
G02X34319Y6883I64J0D01*
G01X35000Y6500D02*
Y6691D01*
G02X35064Y6755I64J0D01*
G01X35319D01*
G02X35382Y6691I0J64D01*
G01Y6500D01*
X35000D01*
X35255Y6883D02*
G02X35191Y6946I0J64D01*
G01Y7074D01*
G02X35255Y7138I64J0D01*
G01X35319D01*
G02X35382Y7074I0J64D01*
G01Y6946D01*
G02X35319Y6883I64J0D01*
G01X35064D01*
G02X35000Y6946I0J64D01*
G01Y7074D01*
G02X35064Y7138I64J0D01*
G01X36000Y6500D02*
Y6691D01*
G02X36064Y6755I64J0D01*
G01X36319D01*
G02X36383Y6691I0J64D01*
G01Y6500D01*
X36000D01*
X36064Y6883D02*
G02X36000Y6946I0J64D01*
G01Y7074D01*
G02X36064Y7138I64J0D01*
G01X36128D01*
G02X36191Y7074I0J64D01*
G01Y7010D01*
Y7074D02*
G02X36255Y7138I64J0D01*
G01X36319D01*
G02X36383Y7074I0J64D01*
G01Y6946D01*
G02X36319Y6883I64J0D01*
G01X37000Y6500D02*
Y6691D01*
G02X37064Y6755I64J0D01*
G01X37319D01*
G02X37383Y6691I0J64D01*
G01Y6500D01*
X37000D01*
X37064Y6883D02*
G02X37000Y6946I0J64D01*
G01Y7074D01*
G02X37064Y7138I64J0D01*
G01X37128D01*
G02X37191Y7074I0J64D01*
G01Y6946D01*
X37255Y6883D02*
G02X37191Y6946I0J64D01*
G01X37255Y6883D02*
X37383D01*
Y7138D01*
X38000Y6500D02*
Y6691D01*
G02X38064Y6755I64J0D01*
G01X38319D01*
G02X38382Y6691I0J64D01*
G01Y6500D01*
X38000D01*
X38064Y6946D02*
X38000Y7010D01*
X38382D01*
Y6946D02*
Y7074D01*
X39000Y6500D02*
Y6691D01*
G02X39064Y6755I64J0D01*
G01X39319D01*
G02X39382Y6691I0J64D01*
G01Y6500D01*
X39000D01*
X39319Y6883D02*
X39064D01*
G02X39000Y6946I0J64D01*
G01Y7074D01*
G02X39064Y7138I64J0D01*
G01X39319D01*
G02X39382Y7074I0J64D01*
G01Y6946D01*
G02X39319Y6883I64J0D01*
G01X39064Y7138D01*
X7750Y8000D02*
Y7618D01*
Y8000D02*
X7941D01*
G02X8005Y7936I0J64D01*
G01Y7873D01*
G02X7941Y7809I64J0D01*
G01X7750D01*
X7814D02*
X8005Y7618D01*
X8387Y8000D02*
X8132D01*
Y7618D01*
X8387D01*
X8132Y7809D02*
X8324D01*
X8706D02*
G02X8770Y7745I0J64D01*
G01Y7681D01*
G02X8706Y7618I64J0D01*
G01X8579D01*
G02X8515Y7681I0J64D01*
G01X8706Y7809D02*
X8579D01*
G02X8515Y7873I0J64D01*
G01Y7936D01*
G02X8579Y8000I64J0D01*
G01X8706D01*
G02X8770Y7936I0J64D01*
G01X9152Y8000D02*
X8897D01*
Y7618D01*
X9152D01*
X8897Y7809D02*
X9089D01*
X9280Y8000D02*
X9535D01*
X9407D02*
Y7618D01*
X16190Y10480D02*
X16381D01*
G02X16445Y10416I0J64D01*
G01Y10161D01*
G02X16381Y10098I64J0D01*
G01X16190D01*
Y10480D01*
X16827D02*
X16572D01*
Y10098D01*
X16827D01*
X16572Y10289D02*
X16764D01*
X17210Y10161D02*
G02X17146Y10098I64J0D01*
G01X17019D01*
G02X16955Y10161I0J64D01*
G01Y10416D01*
G02X17019Y10480I64J0D01*
G01X17146D01*
G02X17210Y10416I0J64D01*
G01X17720Y10098D02*
X17975Y10480D01*
X18485D02*
Y10098D01*
Y10289D02*
X18740D01*
Y10480D02*
Y10098D01*
X19122Y10480D02*
X18867D01*
Y10098D01*
X19122D01*
X18867Y10289D02*
X19059D01*
X19250Y10480D02*
X19505Y10098D01*
X19250D02*
X19505Y10480D01*
X14379Y1775D02*
G02X14442Y1711I0J64D01*
G01Y1584D01*
G02X14379Y1520I64J0D01*
G01X14124D01*
G02X14060Y1584I0J64D01*
G01Y1711D01*
G02X14124Y1775I64J0D01*
G01X14251Y1966D02*
G02X14187Y1903I64J0D01*
G01X14124D01*
G02X14060Y1966I0J64D01*
G01Y2094D01*
G02X14124Y2158I64J0D01*
G01X14187D01*
G02X14251Y2094I0J64D01*
G01Y1966D01*
Y2094D02*
G02X14315Y2158I64J0D01*
G01X14379D01*
G02X14442Y2094I0J64D01*
G01Y1966D01*
G02X14379Y1903I64J0D01*
G01X14315D01*
G02X14251Y1966I0J64D01*
G01X3940Y890D02*
Y508D01*
Y890D02*
X4131D01*
G02X4195Y826I0J64D01*
G01Y763D01*
G02X4131Y699I64J0D01*
G01X3940D01*
X4004D02*
X4195Y508D01*
X4323Y826D02*
G02X4386Y890I64J0D01*
G01X4514D01*
G02X4578Y826I0J64D01*
G01Y763D01*
G02X4514Y699I64J0D01*
G01X4450D01*
X4514D02*
G02X4578Y635I0J64D01*
G01Y571D01*
G02X4514Y508I64J0D01*
G01X4386D01*
G02X4323Y571I0J64D01*
G01X8180Y3400D02*
Y3017D01*
Y3400D02*
X8371D01*
G02X8435Y3336I0J64D01*
G01Y3272D01*
G02X8371Y3209I64J0D01*
G01X8180D01*
X8244D02*
X8435Y3017D01*
X8817D02*
Y3400D01*
X8562D02*
Y3209D01*
X8817D01*
X725Y23901D02*
G02X661Y23837I64J0D01*
G01X534D01*
G02X470Y23901I0J64D01*
G01Y24156D01*
G02X534Y24220I64J0D01*
G01X661D01*
G02X725Y24156I0J64D01*
G01X916D02*
X980Y24220D01*
Y23837D01*
X916D02*
X1044D01*
X2895Y581D02*
G02X2831Y517I64J0D01*
G01X2704D01*
G02X2640Y581I0J64D01*
G01Y836D01*
G02X2704Y900I64J0D01*
G01X2831D01*
G02X2895Y836I0J64D01*
G01X3022Y645D02*
G02X3086Y709I64J0D01*
G01X3214D01*
G02X3277Y645I0J64D01*
G01Y581D01*
G02X3214Y517I64J0D01*
G01X3086D01*
G02X3022Y581I0J64D01*
G01Y836D01*
G02X3086Y900I64J0D01*
G01X3214D01*
G02X3277Y836I0J64D01*
G01X6900Y10560D02*
Y10178D01*
Y10560D02*
X7091D01*
G02X7155Y10496I0J64D01*
G01Y10433D01*
G02X7091Y10369I64J0D01*
G01X6900D01*
X6964D02*
X7155Y10178D01*
X7537Y10560D02*
X7282D01*
Y10369D01*
X7474D01*
G02X7537Y10305I0J64D01*
G01Y10241D01*
G02X7474Y10178I64J0D01*
G01X7346D01*
G02X7282Y10241I0J64D01*
G01X3350Y22740D02*
X3541D01*
G02X3605Y22676I0J64D01*
G01Y22421D01*
G02X3541Y22358I64J0D01*
G01X3350D01*
Y22740D01*
X3796Y22676D02*
X3860Y22740D01*
Y22358D01*
X3796D02*
X3924D01*
X260Y19150D02*
Y18768D01*
Y19150D02*
X451D01*
G02X515Y19086I0J64D01*
G01Y19023D01*
G02X451Y18959I64J0D01*
G01X260D01*
X324D02*
X515Y18768D01*
X643D02*
Y19150D01*
X898Y18768D01*
Y19150D01*
X1025Y19086D02*
G02X1089Y19150I64J0D01*
G01X1216D01*
G02X1280Y19086I0J64D01*
G01Y19023D01*
G02X1216Y18959I64J0D01*
G01X1153D01*
X1216D02*
G02X1280Y18895I0J64D01*
G01Y18831D01*
G02X1216Y18768I64J0D01*
G01X1089D01*
G02X1025Y18831I0J64D01*
G01X14340Y10630D02*
Y10248D01*
Y10630D02*
X14531D01*
G02X14595Y10566I0J64D01*
G01Y10503D01*
G02X14531Y10439I64J0D01*
G01X14340D01*
X14404D02*
X14595Y10248D01*
X14722Y10566D02*
G02X14786Y10630I64J0D01*
G01X14914D01*
G02X14977Y10566I0J64D01*
G01Y10503D01*
G02X14914Y10439I64J0D01*
G01X14786D01*
X14722Y10375D02*
G02X14786Y10439I64J0D01*
G01X14722Y10375D02*
Y10248D01*
X14977D01*
X22725Y11691D02*
G02X22661Y11628I64J0D01*
G01X22534D01*
G02X22470Y11691I0J64D01*
G01Y11946D01*
G02X22534Y12010I64J0D01*
G01X22661D01*
G02X22725Y11946I0J64D01*
G01X22853Y12010D02*
X23108D01*
X22916Y11628D01*
X580Y20180D02*
X962D01*
X580D02*
Y20371D01*
G02X644Y20435I64J0D01*
G01X707D01*
G02X771Y20371I0J64D01*
G01Y20180D01*
Y20244D02*
X962Y20435D01*
X644Y20626D02*
X580Y20690D01*
X962D01*
Y20626D02*
Y20754D01*
X5000Y3745D02*
X4681D01*
G02X4617Y3809I0J64D01*
G01Y3936D01*
G02X4681Y4000I64J0D01*
G01X4936Y3554D02*
X5000Y3490D01*
X4617D01*
Y3554D02*
Y3426D01*
X37745Y20351D02*
G02X37681Y20287I64J0D01*
G01X37554D01*
G02X37490Y20351I0J64D01*
G01Y20606D01*
G02X37554Y20670I64J0D01*
G01X37681D01*
G02X37745Y20606I0J64D01*
G01X37872D02*
G02X37936Y20670I64J0D01*
G01X38064D01*
G02X38127Y20606I0J64D01*
G01Y20543D01*
G02X38064Y20479I64J0D01*
G01X38000D01*
X38064D02*
G02X38127Y20415I0J64D01*
G01Y20351D01*
G02X38064Y20287I64J0D01*
G01X37936D01*
G02X37872Y20351I0J64D01*
G01X36255Y24681D02*
G02X36191Y24617I64J0D01*
G01X36064D01*
G02X36000Y24681I0J64D01*
G01Y24936D01*
G02X36064Y25000I64J0D01*
G01X36191D01*
G02X36255Y24936I0J64D01*
G01X36638Y25000D02*
X36383D01*
Y24809D01*
X36574D01*
G02X36638Y24745I0J64D01*
G01Y24681D01*
G02X36574Y24617I64J0D01*
G01X36446D01*
G02X36383Y24681I0J64D01*
G01X23615Y21181D02*
G02X23551Y21117I64J0D01*
G01X23424D01*
G02X23360Y21181I0J64D01*
G01Y21436D01*
G02X23424Y21500I64J0D01*
G01X23551D01*
G02X23615Y21436I0J64D01*
G01X23806D02*
X23870Y21500D01*
Y21117D01*
X23806D02*
X23934D01*
X24189Y21436D02*
X24252Y21500D01*
Y21117D01*
X24189D02*
X24316D01*
X22175Y9540D02*
Y9221D01*
G02X22111Y9157I64J0D01*
G01X21984D01*
G02X21920Y9221I0J64D01*
G01X22303Y9476D02*
G02X22366Y9540I64J0D01*
G01X22494D01*
G02X22558Y9476I0J64D01*
G01Y9412D01*
G02X22494Y9349I64J0D01*
G01X22366D01*
X22303Y9285D02*
G02X22366Y9349I64J0D01*
G01X22303Y9285D02*
Y9157D01*
X22558D01*
X17220Y8380D02*
X17602D01*
X17220D02*
Y8571D01*
G02X17284Y8635I64J0D01*
G01X17347D01*
G02X17411Y8571I0J64D01*
G01Y8380D01*
Y8444D02*
X17602Y8635D01*
X17220Y8762D02*
Y9017D01*
X17602Y8826D01*
X11330Y20040D02*
X11712D01*
X11330D02*
Y20231D01*
G02X11394Y20295I64J0D01*
G01X11457D01*
G02X11521Y20231I0J64D01*
G01Y20040D01*
Y20104D02*
X11712Y20295D01*
X11394Y20423D02*
G02X11330Y20486I0J64D01*
G01Y20614D01*
G02X11394Y20678I64J0D01*
G01X11457D01*
G02X11521Y20614I0J64D01*
G01Y20486D01*
X11585Y20423D02*
G02X11521Y20486I0J64D01*
G01X11585Y20423D02*
X11712D01*
Y20678D01*
X11394Y20869D02*
X11330Y20933D01*
X11712D01*
Y20869D02*
Y20996D01*
X14040Y20050D02*
X14422D01*
X14040D02*
Y20241D01*
G02X14104Y20305I64J0D01*
G01X14167D01*
G02X14231Y20241I0J64D01*
G01Y20050D01*
Y20114D02*
X14422Y20305D01*
X14104Y20433D02*
G02X14040Y20496I0J64D01*
G01Y20624D01*
G02X14104Y20688I64J0D01*
G01X14167D01*
G02X14231Y20624I0J64D01*
G01Y20496D01*
X14295Y20433D02*
G02X14231Y20496I0J64D01*
G01X14295Y20433D02*
X14422D01*
Y20688D01*
X14359Y20815D02*
X14104D01*
G02X14040Y20879I0J64D01*
G01Y21006D01*
G02X14104Y21070I64J0D01*
G01X14359D01*
G02X14422Y21006I0J64D01*
G01Y20879D01*
G02X14359Y20815I64J0D01*
G01X14104Y21070D01*
X3509Y9315D02*
G02X3573Y9251I0J64D01*
G01Y9124D01*
G02X3509Y9060I64J0D01*
G01X3254D01*
G02X3190Y9124I0J64D01*
G01Y9251D01*
G02X3254Y9315I64J0D01*
G01Y9442D02*
G02X3190Y9506I0J64D01*
G01Y9634D01*
G02X3254Y9697I64J0D01*
G01X3317D01*
G02X3381Y9634I0J64D01*
G01Y9506D01*
X3445Y9442D02*
G02X3381Y9506I0J64D01*
G01X3445Y9442D02*
X3573D01*
Y9697D01*
X18669Y1035D02*
G02X18733Y971I0J64D01*
G01Y844D01*
G02X18669Y780I64J0D01*
G01X18414D01*
G02X18350Y844I0J64D01*
G01Y971D01*
G02X18414Y1035I64J0D01*
G01X18478Y1417D02*
G02X18541Y1354I0J64D01*
G01Y1226D01*
G02X18478Y1163I64J0D01*
G01X18414D01*
G02X18350Y1226I0J64D01*
G01Y1354D01*
G02X18414Y1417I64J0D01*
G01X18605D01*
X18733D01*
X18289Y21225D02*
G02X18352Y21161I0J64D01*
G01Y21034D01*
G02X18289Y20970I64J0D01*
G01X18034D01*
G02X17970Y21034I0J64D01*
G01Y21161D01*
G02X18034Y21225I64J0D01*
G01X18352Y21608D02*
X17970D01*
Y21353D02*
X18161D01*
Y21608D01*
D11*
X39735Y20140D02*
G02X39660Y20215I0J75D01*
G01Y20365D01*
G02X39735Y20440I75J0D01*
G01X39810D01*
G02X39885Y20365I0J75D01*
G01Y20215D01*
X39960Y20140D02*
G02X39885Y20215I0J75D01*
G01X39960Y20140D02*
X40110D01*
Y20440D01*
X40035Y20590D02*
X39735D01*
G02X39660Y20665I0J75D01*
G01Y20815D01*
G02X39735Y20890I75J0D01*
G01X40035D01*
G02X40110Y20815I0J75D01*
G01Y20665D01*
G02X40035Y20590I75J0D01*
G01X39735Y20890D01*
Y21040D02*
G02X39660Y21115I0J75D01*
G01Y21265D01*
G02X39735Y21340I75J0D01*
G01X39810D01*
G02X39885Y21265I0J75D01*
G01Y21115D01*
X39960Y21040D02*
G02X39885Y21115I0J75D01*
G01X39960Y21040D02*
X40110D01*
Y21340D01*
Y21790D02*
X39660D01*
Y21490D02*
X39885D01*
Y21790D01*
X40500Y20000D02*
X40950D01*
X40500D02*
Y20225D01*
G02X40575Y20300I75J0D01*
G01X40650D01*
G02X40725Y20225I0J75D01*
G01Y20000D01*
Y20075D02*
X40950Y20300D01*
X40500Y20750D02*
Y20450D01*
X40950D01*
Y20750D01*
X40725Y20450D02*
Y20675D01*
X40500Y20900D02*
X40950Y21050D01*
X40500Y21200D01*
Y21800D02*
Y22025D01*
G02X40575Y22100I75J0D01*
G01X40875D01*
G02X40950Y22025I0J75D01*
G01Y21800D01*
X40500D01*
X4910Y22440D02*
G02X4985Y22515I75J0D01*
G01X5135D01*
G02X5210Y22440I0J75D01*
G01Y22365D01*
G02X5135Y22290I75J0D01*
G01X4985D01*
G02X4910Y22365I0J75D01*
G01Y22665D01*
G02X4985Y22740I75J0D01*
G01X5135D01*
G02X5210Y22665I0J75D01*
G01X5473Y22327D02*
X5474Y22337D01*
X5478Y22346D01*
X5483Y22354D01*
X5491Y22360D01*
X5500Y22364D01*
X5510Y22365D01*
G02X5548Y22327I0J38D01*
G01X5546Y22318D01*
X5542Y22309D01*
X5537Y22301D01*
X5529Y22295D01*
X5520Y22291D01*
X5510Y22290D01*
G02X5473Y22327I0J37D01*
G01X5510Y22346D02*
Y22309D01*
X5885Y22665D02*
X5960Y22740D01*
Y22290D01*
X5885D02*
X6035D01*
X6560D02*
Y22740D01*
X6260D02*
Y22515D01*
X6560D01*
X7010Y22290D02*
Y22740D01*
X6710D02*
Y22515D01*
X7010D01*
X7160Y22290D02*
Y22740D01*
X7310Y22515D01*
X7460Y22740D01*
Y22290D01*
X7610Y22740D02*
Y22290D01*
Y22515D02*
G02X7685Y22590I75J0D01*
G01X7835D01*
G02X7910Y22515I0J75D01*
G01Y22290D01*
X8060Y22590D02*
X8341D01*
X8079Y22290D01*
X8360D01*
X12180Y23075D02*
X12480D01*
X13080Y23300D02*
X13380D01*
X13155Y22850D01*
X13830D02*
Y23300D01*
X13530D02*
Y23075D01*
X13830D01*
X13980Y23300D02*
Y22850D01*
X14280D01*
X14655Y23075D02*
G02X14730Y23000I0J75D01*
G01Y22925D01*
G02X14655Y22850I75J0D01*
G01X14505D01*
G02X14430Y22925I0J75D01*
G01X14655Y23075D02*
X14505D01*
G02X14430Y23150I0J75D01*
G01Y23225D01*
G02X14505Y23300I75J0D01*
G01X14655D01*
G02X14730Y23225I0J75D01*
G01X14955D02*
X15030Y23300D01*
Y22850D01*
X14955D02*
X15105D01*
X15630D02*
Y23300D01*
X15330D02*
Y23075D01*
X15630D01*
X27290Y22975D02*
X27590D01*
X28190Y23200D02*
X28490D01*
X28265Y22750D01*
X28940D02*
Y23200D01*
X28640D02*
Y22975D01*
X28940D01*
X29090Y23200D02*
Y22750D01*
X29390D01*
X29765Y22975D02*
G02X29840Y22900I0J75D01*
G01Y22825D01*
G02X29765Y22750I75J0D01*
G01X29615D01*
G02X29540Y22825I0J75D01*
G01X29765Y22975D02*
X29615D01*
G02X29540Y23050I0J75D01*
G01Y23125D01*
G02X29615Y23200I75J0D01*
G01X29765D01*
G02X29840Y23125I0J75D01*
G01X30065D02*
X30140Y23200D01*
Y22750D01*
X30065D02*
X30215D01*
X30440Y23125D02*
G02X30515Y23200I75J0D01*
G01X30665D01*
G02X30740Y23125I0J75D01*
G01Y23050D01*
G02X30665Y22975I75J0D01*
G01X30590D01*
X30665D02*
G02X30740Y22900I0J75D01*
G01Y22825D01*
G02X30665Y22750I75J0D01*
G01X30515D01*
G02X30440Y22825I0J75D01*
G01X31190Y23050D02*
G02X31115Y22975I75J0D01*
G01X30965D01*
G02X30890Y23050I0J75D01*
G01Y23125D01*
G02X30965Y23200I75J0D01*
G01X31115D01*
G02X31190Y23125I0J75D01*
G01Y22900D01*
Y22750D01*
X38975Y14390D02*
Y14690D01*
X38750Y15290D02*
Y15590D01*
X39200Y15365D01*
Y16040D02*
X38750D01*
Y15740D02*
X38975D01*
Y16040D01*
X38750Y16190D02*
X39200D01*
Y16490D01*
X38975Y16865D02*
G02X39050Y16940I75J0D01*
G01X39125D01*
G02X39200Y16865I0J75D01*
G01Y16715D01*
G02X39125Y16640I75J0D01*
G01X38975Y16865D02*
Y16715D01*
G02X38900Y16640I75J0D01*
G01X38825D01*
G02X38750Y16715I0J75D01*
G01Y16865D01*
G02X38825Y16940I75J0D01*
G01X39125Y17090D02*
X38825D01*
G02X38750Y17165I0J75D01*
G01Y17315D01*
G02X38825Y17390I75J0D01*
G01X39125D01*
G02X39200Y17315I0J75D01*
G01Y17165D01*
G02X39125Y17090I75J0D01*
G01X38825Y17390D01*
X38975Y17615D02*
G02X38900Y17540I75J0D01*
G01X38825D01*
G02X38750Y17615I0J75D01*
G01Y17765D01*
G02X38825Y17840I75J0D01*
G01X38900D01*
G02X38975Y17765I0J75D01*
G01Y17615D01*
Y17765D02*
G02X39050Y17840I75J0D01*
G01X39125D01*
G02X39200Y17765I0J75D01*
G01Y17615D01*
G02X39125Y17540I75J0D01*
G01X39050D01*
G02X38975Y17615I0J75D01*
G01X31310Y17865D02*
X31610D01*
X32210Y18015D02*
G02X32285Y18090I75J0D01*
G01X32435D01*
G02X32510Y18015I0J75D01*
G01Y17940D01*
G02X32435Y17865I75J0D01*
G01X32285D01*
X32210Y17790D02*
G02X32285Y17865I75J0D01*
G01X32210Y17790D02*
Y17640D01*
X32510D01*
X32735Y17865D02*
G02X32660Y17940I0J75D01*
G01Y18015D01*
G02X32735Y18090I75J0D01*
G01X32885D01*
G02X32960Y18015I0J75D01*
G01Y17940D01*
G02X32885Y17865I75J0D01*
G01X32735D01*
X32885D02*
G02X32960Y17790I0J75D01*
G01Y17715D01*
G02X32885Y17640I75J0D01*
G01X32735D01*
G02X32660Y17715I0J75D01*
G01Y17790D01*
G02X32735Y17865I75J0D01*
G01X33410Y17715D02*
G02X33335Y17640I75J0D01*
G01X33185D01*
G02X33110Y17715I0J75D01*
G01Y18015D01*
G02X33185Y18090I75J0D01*
G01X33335D01*
G02X33410Y18015I0J75D01*
G01X33560D02*
G02X33635Y18090I75J0D01*
G01X33785D01*
G02X33860Y18015I0J75D01*
G01Y17940D01*
G02X33785Y17865I75J0D01*
G01X33635D01*
X33560Y17790D02*
G02X33635Y17865I75J0D01*
G01X33560Y17790D02*
Y17640D01*
X33860D01*
X34310Y18090D02*
X34010D01*
Y17865D01*
X34235D01*
G02X34310Y17790I0J75D01*
G01Y17715D01*
G02X34235Y17640I75J0D01*
G01X34085D01*
G02X34010Y17715I0J75D01*
G01X34460Y17790D02*
G02X34535Y17865I75J0D01*
G01X34685D01*
G02X34760Y17790I0J75D01*
G01Y17715D01*
G02X34685Y17640I75J0D01*
G01X34535D01*
G02X34460Y17715I0J75D01*
G01Y18015D01*
G02X34535Y18090I75J0D01*
G01X34685D01*
G02X34760Y18015I0J75D01*
G01X4400Y18165D02*
X4700D01*
X5375D02*
G02X5300Y18240I0J75D01*
G01Y18315D01*
G02X5375Y18390I75J0D01*
G01X5525D01*
G02X5600Y18315I0J75D01*
G01Y18240D01*
G02X5525Y18165I75J0D01*
G01X5375D01*
X5525D02*
G02X5600Y18090I0J75D01*
G01Y18015D01*
G02X5525Y17940I75J0D01*
G01X5375D01*
G02X5300Y18015I0J75D01*
G01Y18090D01*
G02X5375Y18165I75J0D01*
G01X5750Y18015D02*
Y18315D01*
G02X5825Y18390I75J0D01*
G01X5975D01*
G02X6050Y18315I0J75D01*
G01Y18015D01*
G02X5975Y17940I75J0D01*
G01X5825D01*
G02X5750Y18015I0J75D01*
G01X6050Y18315D01*
X6275Y18165D02*
G02X6200Y18240I0J75D01*
G01Y18315D01*
G02X6275Y18390I75J0D01*
G01X6425D01*
G02X6500Y18315I0J75D01*
G01Y18240D01*
G02X6425Y18165I75J0D01*
G01X6275D01*
X6425D02*
G02X6500Y18090I0J75D01*
G01Y18015D01*
G02X6425Y17940I75J0D01*
G01X6275D01*
G02X6200Y18015I0J75D01*
G01Y18090D01*
G02X6275Y18165I75J0D01*
G01X6950Y18390D02*
X6650D01*
Y18165D01*
X6875D01*
G02X6950Y18090I0J75D01*
G01Y18015D01*
G02X6875Y17940I75J0D01*
G01X6725D01*
G02X6650Y18015I0J75D01*
G01X13620Y6255D02*
X13920D01*
X14520Y6480D02*
X14820D01*
X14595Y6030D01*
X15270D02*
Y6480D01*
X14970D02*
Y6255D01*
X15270D01*
X15420Y6480D02*
Y6030D01*
X15720D01*
X16095Y6255D02*
G02X16170Y6180I0J75D01*
G01Y6105D01*
G02X16095Y6030I75J0D01*
G01X15945D01*
G02X15870Y6105I0J75D01*
G01X16095Y6255D02*
X15945D01*
G02X15870Y6330I0J75D01*
G01Y6405D01*
G02X15945Y6480I75J0D01*
G01X16095D01*
G02X16170Y6405I0J75D01*
G01X16620Y6480D02*
X16320D01*
Y6255D01*
X16545D01*
G02X16620Y6180I0J75D01*
G01Y6105D01*
G02X16545Y6030I75J0D01*
G01X16395D01*
G02X16320Y6105I0J75D01*
G01X16770Y6480D02*
X17070D01*
X16845Y6030D01*
X17220Y6405D02*
G02X17295Y6480I75J0D01*
G01X17445D01*
G02X17520Y6405I0J75D01*
G01Y6330D01*
G02X17445Y6255I75J0D01*
G01X17370D01*
X17445D02*
G02X17520Y6180I0J75D01*
G01Y6105D01*
G02X17445Y6030I75J0D01*
G01X17295D01*
G02X17220Y6105I0J75D01*
D12*
G01X30425Y18070D02*
Y17651D01*
G02X30341Y17567I84J0D01*
G01X30174D01*
G02X30090Y17651I0J84D01*
G01Y18070D01*
X30593Y17986D02*
G02X30676Y18070I84J0D01*
G01X30844D01*
G02X30928Y17986I0J84D01*
G01Y17902D01*
G02X30844Y17819I84J0D01*
G01X30760D01*
X30844D02*
G02X30928Y17735I0J84D01*
G01Y17651D01*
G02X30844Y17567I84J0D01*
G01X30676D01*
G02X30593Y17651I0J84D01*
G01X3665Y18360D02*
Y17941D01*
G02X3581Y17858I84J0D01*
G01X3414D01*
G02X3330Y17941I0J84D01*
G01Y18360D01*
X3916Y18276D02*
X4000Y18360D01*
Y17858D01*
X3916D02*
X4084D01*
X11195Y23250D02*
Y22831D01*
G02X11111Y22748I84J0D01*
G01X10944D01*
G02X10860Y22831I0J84D01*
G01Y23250D01*
X11362D02*
X11697D01*
X11446Y22748D01*
X12675Y6520D02*
Y6101D01*
G02X12591Y6018I84J0D01*
G01X12424D01*
G02X12340Y6101I0J84D01*
G01Y6520D01*
X13177D02*
X12842D01*
Y6269D01*
X13094D01*
G02X13177Y6185I0J84D01*
G01Y6101D01*
G02X13094Y6018I84J0D01*
G01X12926D01*
G02X12842Y6101I0J84D01*
G01X38640Y13395D02*
X39059D01*
G02X39143Y13311I0J84D01*
G01Y13144D01*
G02X39059Y13060I84J0D01*
G01X38640D01*
X38975Y13562D02*
G02X38891Y13646I0J84D01*
G01Y13814D01*
G02X38975Y13897I84J0D01*
G01X39059D01*
G02X39143Y13814I0J84D01*
G01Y13646D01*
G02X39059Y13562I84J0D01*
G01X38724D01*
G02X38640Y13646I0J84D01*
G01Y13814D01*
G02X38724Y13897I84J0D01*
G01X26435Y23230D02*
Y22811D01*
G02X26351Y22728I84J0D01*
G01X26184D01*
G02X26100Y22811I0J84D01*
G01Y23230D01*
X26938Y22728D02*
Y23230D01*
X26603D02*
Y22979D01*
X26938D01*
X5870Y23441D02*
Y23776D01*
G02X5954Y23860I84J0D01*
G01X6121D01*
G02X6205Y23776I0J84D01*
G01Y23441D01*
G02X6121Y23357I84J0D01*
G01X5954D01*
G02X5870Y23441I0J84D01*
G01X6624Y23609D02*
G02X6708Y23525I0J84D01*
G01Y23441D01*
G02X6624Y23357I84J0D01*
G01X6456D01*
G02X6373Y23441I0J84D01*
G01X6624Y23609D02*
X6456D01*
G02X6373Y23692I0J84D01*
G01Y23776D01*
G02X6456Y23860I84J0D01*
G01X6624D01*
G02X6708Y23776I0J84D01*
G01X7210Y23441D02*
G02X7126Y23357I84J0D01*
G01X6959D01*
G02X6875Y23441I0J84D01*
G01Y23776D01*
G02X6959Y23860I84J0D01*
G01X7126D01*
G02X7210Y23776I0J84D01*
G01X7461D02*
X7545Y23860D01*
Y23357D01*
X7461D02*
X7629D01*
D13*
X36704Y11940D02*
G02X36640Y12004I0J64D01*
G01Y12131D01*
G02X36704Y12195I64J0D01*
G01X36767D01*
G02X36831Y12131I0J64D01*
G01Y12068D01*
Y12131D02*
G02X36895Y12195I64J0D01*
G01X36959D01*
G02X37022Y12131I0J64D01*
G01Y12004D01*
G02X36959Y11940I64J0D01*
G01X36704Y12323D02*
G02X36640Y12386I0J64D01*
G01Y12514D01*
G02X36704Y12578I64J0D01*
G01X36767D01*
G02X36831Y12514I0J64D01*
G01Y12386D01*
X36895Y12323D02*
G02X36831Y12386I0J64D01*
G01X36895Y12323D02*
X37022D01*
Y12578D01*
X36640Y12705D02*
X37022D01*
X36640Y12960D02*
X36831Y12769D01*
X37022Y12960D01*
X36831Y12705D02*
Y12769D01*
X36640Y13087D02*
X37022D01*
X36831D02*
G02X36767Y13151I0J64D01*
G01Y13279D01*
G02X36831Y13342I64J0D01*
G01X36959D01*
G02X37022Y13279I0J64D01*
G01Y13151D01*
G02X36959Y13087I64J0D01*
G01X36640Y13852D02*
X37022D01*
X36640D02*
Y14044D01*
G02X36704Y14107I64J0D01*
G01X36767D01*
G02X36831Y14044I0J64D01*
G01Y13852D01*
Y13916D02*
X37022Y14107D01*
X36959Y14235D02*
X36704D01*
G02X36640Y14299I0J64D01*
G01Y14426D01*
G02X36704Y14490I64J0D01*
G01X36959D01*
G02X37022Y14426I0J64D01*
G01Y14299D01*
G02X36959Y14235I64J0D01*
G01X37022Y14617D02*
X36640D01*
X36831Y14745D01*
X36640Y14872D01*
X37022D01*
Y15382D02*
X36640Y15637D01*
X36704Y16211D02*
X36640Y16275D01*
X37022D01*
Y16211D02*
Y16339D01*
X36895Y16530D02*
G02X36831Y16594I0J64D01*
G01Y16721D01*
G02X36895Y16785I64J0D01*
G01X36959D01*
G02X37022Y16721I0J64D01*
G01Y16594D01*
G02X36959Y16530I64J0D01*
G01X36704D01*
G02X36640Y16594I0J64D01*
G01Y16721D01*
G02X36704Y16785I64J0D01*
G01X36640Y16912D02*
X37022D01*
X36640Y17167D02*
X36831Y16976D01*
X37022Y17167D01*
X36831Y16912D02*
Y16976D01*
X36640Y17295D02*
X37022D01*
X36831D02*
G02X36767Y17359I0J64D01*
G01Y17486D01*
G02X36831Y17550I64J0D01*
G01X36959D01*
G02X37022Y17486I0J64D01*
G01Y17359D01*
G02X36959Y17295I64J0D01*
G01X36640Y18060D02*
X37022D01*
X36640D02*
Y18251D01*
G02X36704Y18315I64J0D01*
G01X36767D01*
G02X36831Y18251I0J64D01*
G01Y18060D01*
Y18124D02*
X37022Y18315D01*
Y18442D02*
X36704D01*
G02X36640Y18506I0J64D01*
G01Y18634D01*
G02X36704Y18697I64J0D01*
G01X37022D01*
X36831Y18442D02*
Y18697D01*
X37022Y18825D02*
X36640D01*
X36831Y18952D01*
X36640Y19080D01*
X37022D01*
D14*
X23750Y5000D02*
Y4400D01*
Y4700D02*
X24150D01*
Y5000D02*
Y4400D01*
X24350Y5000D02*
X24650D01*
G02X24750Y4900I0J100D01*
G01Y4500D01*
G02X24650Y4400I100J0D01*
G01X24350D01*
Y5000D01*
X24950D02*
Y4400D01*
X25350D01*
X25550Y5000D02*
X25950Y4400D01*
X25550D02*
X25950Y5000D01*
X26150Y4900D02*
G02X26250Y5000I100J0D01*
G01X26450D01*
G02X26550Y4900I0J100D01*
G01Y4800D01*
G02X26450Y4700I100J0D01*
G01X26250D01*
X26150Y4600D02*
G02X26250Y4700I100J0D01*
G01X26150Y4600D02*
Y4400D01*
X26550D01*
X27150D02*
Y5000D01*
X26750D02*
Y4700D01*
X27150D01*
X27450Y4900D02*
X27550Y5000D01*
Y4400D01*
X27450D02*
X27650D01*
X27950Y4600D02*
G02X28050Y4700I100J0D01*
G01X28250D01*
G02X28350Y4600I0J100D01*
G01Y4500D01*
G02X28250Y4400I100J0D01*
G01X28050D01*
G02X27950Y4500I0J100D01*
G01Y4900D01*
G02X28050Y5000I100J0D01*
G01X28250D01*
G02X28350Y4900I0J100D01*
G01X33750Y5000D02*
Y4400D01*
Y4700D02*
X34150D01*
Y5000D02*
Y4400D01*
X34350Y5000D02*
X34650D01*
G02X34750Y4900I0J100D01*
G01Y4500D01*
G02X34650Y4400I100J0D01*
G01X34350D01*
Y5000D01*
X34950D02*
Y4400D01*
X35350D01*
X35550Y5000D02*
X35950Y4400D01*
X35550D02*
X35950Y5000D01*
X36150Y4900D02*
G02X36250Y5000I100J0D01*
G01X36450D01*
G02X36550Y4900I0J100D01*
G01Y4800D01*
G02X36450Y4700I100J0D01*
G01X36250D01*
X36150Y4600D02*
G02X36250Y4700I100J0D01*
G01X36150Y4600D02*
Y4400D01*
X36550D01*
X37150D02*
Y5000D01*
X36750D02*
Y4700D01*
X37150D01*
X37450Y4900D02*
X37550Y5000D01*
Y4400D01*
X37450D02*
X37650D01*
X37950Y4600D02*
G02X38050Y4700I100J0D01*
G01X38250D01*
G02X38350Y4600I0J100D01*
G01Y4500D01*
G02X38250Y4400I100J0D01*
G01X38050D01*
G02X37950Y4500I0J100D01*
G01Y4900D01*
G02X38050Y5000I100J0D01*
G01X38250D01*
G02X38350Y4900I0J100D01*
G01X8050Y6200D02*
G02X8150Y6100I0J100D01*
G01Y6000D01*
G02X8050Y5900I100J0D01*
G01X7850D01*
G02X7750Y6000I0J100D01*
G01X8050Y6200D02*
X7850D01*
G02X7750Y6300I0J100D01*
G01Y6400D01*
G02X7850Y6500I100J0D01*
G01X8050D01*
G02X8150Y6400I0J100D01*
G01X8750Y6500D02*
Y6000D01*
G02X8650Y5900I100J0D01*
X8550Y6000I0J100D01*
G01Y6200D01*
Y6000D01*
G02X8450Y5900I100J0D01*
X8350Y6000I0J100D01*
G01Y6500D01*
X9050Y6400D02*
X9150Y6500D01*
Y5900D01*
X9050D02*
X9250D01*
D15*
X21750Y2250D02*
Y3000D01*
X22750Y2250D02*
Y3000D01*
X23750Y2250D02*
Y3000D01*
X25750Y2250D02*
Y3000D01*
X26750Y2250D02*
Y3000D01*
X28870Y2320D02*
Y2820D01*
X27840Y2280D02*
Y2780D01*
X21750Y6500D02*
Y7000D01*
X31750Y2250D02*
Y3000D01*
X32750Y2250D02*
Y3000D01*
X33750Y2250D02*
Y3000D01*
X35750Y2250D02*
Y3000D01*
X36750Y2250D02*
Y3000D01*
X38870Y2320D02*
Y2820D01*
X37840Y2280D02*
Y2780D01*
X31750Y6500D02*
Y7000D01*
D16*
X18465Y25000D02*
X18000D01*
Y24302D01*
Y24651D02*
X18349D01*
X18930Y24767D02*
Y24302D01*
Y25000D02*
Y24942D01*
X19860Y24767D02*
Y24186D01*
G02X19744Y24070I116J0D01*
G01X19395D01*
X19860Y24419D02*
G02X19744Y24302I116J0D01*
G01X19511D01*
G02X19395Y24419I0J116D01*
G01Y24651D01*
G02X19511Y24767I116J0D01*
G01X19744D01*
G02X19860Y24651I0J116D01*
G01X20093Y25000D02*
X20558D01*
X20325D02*
Y24302D01*
X20790Y24767D02*
Y24302D01*
Y24651D02*
G02X20906Y24767I116J0D01*
G01X21139D01*
G02X21255Y24651I0J116D01*
G01X21487Y24419D02*
Y24651D01*
G02X21604Y24767I116J0D01*
G01X21836D01*
G02X21953Y24651I0J116D01*
G01Y24419D01*
G02X21836Y24302I116J0D01*
G01X21604D01*
G02X21487Y24419I0J116D01*
G01X22185Y24767D02*
Y24302D01*
Y24651D02*
G02X22301Y24767I116J0D01*
G01X22534D01*
G02X22650Y24651I0J116D01*
G01Y24302D01*
X23115Y24767D02*
Y24302D01*
Y25000D02*
Y24942D01*
X23580Y25000D02*
X24045Y24302D01*
X23580D02*
X24045Y25000D01*
D17*
X22600Y16250D02*
Y14150D01*
X36400D01*
Y18850D01*
X22600D01*
Y16750D01*
X23100D01*
Y16250D01*
X22600D01*
X1850D02*
Y14150D01*
X21650D01*
Y18850D01*
X1850D01*
Y16750D01*
X2350D01*
Y16250D01*
X1850D01*
X17150Y23250D02*
Y23850D01*
X10350D01*
Y22150D01*
X17150D01*
Y22750D01*
X16650D01*
Y23250D01*
X17150D01*
X18820Y8300D02*
X19400D01*
X4200Y25300D02*
X8750D01*
X9300Y24750D01*
Y20750D01*
X8750Y20200D01*
X4750D01*
X3080Y23760D02*
Y23400D01*
X7660Y3200D02*
Y1460D01*
X5060Y3200D02*
Y1460D01*
X6710Y3830D02*
X6010D01*
X6710Y830D02*
X6010D01*
X11910Y3200D02*
Y1460D01*
X9310Y3200D02*
Y1460D01*
X10960Y3830D02*
X10260D01*
X10960Y830D02*
X10260D01*
X12930Y2450D02*
X12350D01*
Y1550D01*
X12930D01*
X13330Y2450D02*
X13910D01*
Y1550D01*
X13330D01*
X3800Y1780D02*
Y1200D01*
X4700D01*
Y1780D01*
X3800Y2180D02*
Y2760D01*
X4700D01*
Y2180D01*
X8050Y1780D02*
Y1200D01*
X8950D01*
Y1780D01*
X8050Y2180D02*
Y2760D01*
X8950D01*
Y2180D01*
X3260Y23580D02*
X2900D01*
X6780Y9080D02*
Y8500D01*
X7680D01*
X3450Y2180D02*
Y2760D01*
X2550D01*
Y2180D01*
X3450Y1780D02*
Y1200D01*
X2550D01*
Y1780D01*
X7680Y8500D02*
Y9080D01*
X6780Y9480D02*
Y10060D01*
X7680D01*
Y9480D01*
X8740Y9750D02*
Y10550D01*
X7760D01*
Y9750D01*
X8740Y9150D02*
Y8610D01*
X8480Y8350D01*
X8020D01*
X7760Y8610D01*
Y9150D01*
X9740Y9750D02*
Y10550D01*
X8760D01*
X21250Y8750D02*
X31000D01*
X21750Y1000D02*
X31000D01*
X21250Y1500D02*
Y8750D01*
X31000Y1000D02*
Y8750D01*
X21250Y1500D02*
X21750Y1000D01*
X8760Y10550D02*
Y9750D01*
X3010Y20750D02*
Y19950D01*
X3990D01*
Y20750D01*
X3010Y21350D02*
Y21890D01*
X3270Y22150D01*
X3730D01*
X3990Y21890D01*
Y21350D01*
X9740Y9150D02*
Y8610D01*
X9480Y8350D01*
X9020D01*
X8760Y8610D01*
Y9150D01*
X250Y18500D02*
X1250D01*
Y10500D02*
Y18500D01*
Y10500D02*
X250D01*
Y18500D02*
Y10500D01*
Y17500D02*
X1250D01*
X13740Y9750D02*
Y10550D01*
X12760D01*
Y9750D01*
X13740Y9150D02*
Y8610D01*
X13480Y8350D01*
X13020D01*
X12760Y8610D01*
Y9150D01*
X14360Y9080D02*
Y8500D01*
X15260D01*
Y9080D01*
X14360Y9480D02*
Y10060D01*
X15260D01*
Y9480D01*
X12740Y9750D02*
Y10550D01*
X22290Y10420D02*
Y9840D01*
X23190D01*
Y10420D01*
X22290Y10820D02*
Y11400D01*
X23190D01*
Y10820D01*
X7660Y7410D02*
X9400D01*
X7660Y4810D02*
X9400D01*
X7030Y6460D02*
Y5760D01*
X10030Y6460D02*
Y5760D01*
X31250Y8750D02*
X41000D01*
X31750Y1000D02*
X41000D01*
X31250Y1500D02*
Y8750D01*
X41000Y1000D02*
Y8750D01*
X31250Y1500D02*
X31750Y1000D01*
X20650Y6500D02*
Y7100D01*
X10850D01*
Y5400D01*
X20650D01*
Y6000D01*
X20150D01*
Y6500D01*
X20650D01*
X38750Y18900D02*
X38150D01*
Y12100D01*
X39850D01*
Y18900D01*
X39250D01*
Y18400D01*
X38750D01*
Y18900D01*
X25100Y22750D02*
Y22150D01*
X32900D01*
Y23850D01*
X25100D01*
Y23250D01*
X25600D01*
Y22750D01*
X25100D01*
X12740Y10550D02*
X11760D01*
Y9750D01*
X12740Y9150D02*
Y8610D01*
X12480Y8350D01*
X12020D01*
X11760Y8610D01*
Y9150D01*
X11740Y9750D02*
Y10550D01*
X10760D01*
Y9750D01*
X11740Y9150D02*
Y8610D01*
X11480Y8350D01*
X1880Y20950D02*
X1300D01*
Y20050D01*
X1880D01*
X2280Y20950D02*
X2860D01*
Y20050D01*
X2280D01*
X11480Y8350D02*
X11020D01*
X10760Y8610D01*
Y9150D01*
X10740Y9750D02*
Y10550D01*
X9760D01*
X4280Y8360D02*
X2870D01*
X-1940D02*
Y3400D01*
X4280D02*
X2870D01*
X4280Y8360D02*
Y3400D01*
X-1940Y8360D02*
X1130D01*
X-1940Y3400D02*
X1130D01*
X35130Y20200D02*
Y20560D01*
X34950Y20380D02*
X35310D01*
X35320Y24050D02*
X35900D01*
Y24950D01*
X35320D01*
X34920Y24050D02*
X34340D01*
Y24950D01*
X34920D01*
X9760Y10550D02*
Y9750D01*
X10740Y9150D02*
Y8610D01*
X10480Y8350D01*
X10020D01*
X9760Y8610D01*
Y9150D01*
X23010Y22750D02*
Y22390D01*
X23190Y22570D02*
X22830D01*
X19650Y9070D02*
Y10390D01*
X21730Y10400D02*
X19660D01*
X21750Y10390D02*
Y9060D01*
X19650Y9070D02*
X21730D01*
X4750Y20200D02*
X4200Y20750D01*
Y25300D01*
X19400Y8300D02*
Y9200D01*
X18820D01*
X18420Y8300D02*
X17840D01*
Y9200D01*
X18420D01*
X10180Y20950D02*
X9600D01*
Y20050D01*
X10180D01*
X10580Y20950D02*
X11160D01*
Y20050D01*
X10580D01*
X13320D02*
X13900D01*
Y20950D01*
X13320D01*
X12920Y20050D02*
X12340D01*
Y20950D01*
X12920D01*
X4830Y8800D02*
X5410D01*
Y9700D01*
X4830D01*
X4430Y8800D02*
X3850D01*
Y9700D01*
X4430D01*
X17570Y800D02*
X18150D01*
Y1700D01*
X17570D01*
X17170Y800D02*
X16590D01*
Y1700D01*
X17170D01*
X19570Y21050D02*
X20150D01*
Y21950D01*
X19570D01*
X19170Y21050D02*
X18590D01*
Y21950D01*
X19170D01*
G75*
X710Y22460D02*
G02I1250J0D01*
G01X37500Y21500D02*
G02I-1250J0D01*
G01X20640Y21450D02*
G02I1250J0D01*
D18*
G01X22250Y6000D02*
X22651D01*
G74*
G02X22785Y5866I0J134D01*
G01Y5331D01*
G02X22651Y5198I134J0D01*
G01X22250D01*
Y6000D01*
X23186D02*
X23454D01*
X23320D02*
Y5198D01*
X23186D02*
X23454D01*
X24256Y5599D02*
G02X24390Y5465I0J134D01*
G01Y5331D01*
G02X24256Y5198I134J0D01*
G01X23989D01*
G02X23855Y5331I0J134D01*
G01X24256Y5599D02*
X23989D01*
G02X23855Y5733I0J134D01*
G01Y5866D01*
G02X23989Y6000I134J0D01*
G01X24256D01*
G02X24390Y5866I0J134D01*
G01X24791D02*
X24925Y6000D01*
Y5198D01*
X24791D02*
X25059D01*
X31750Y6000D02*
X32151D01*
G02X32285Y5866I0J134D01*
G01Y5331D01*
G02X32151Y5198I134J0D01*
G01X31750D01*
Y6000D01*
X32686D02*
X32954D01*
X32820D02*
Y5198D01*
X32686D02*
X32954D01*
X33756Y5599D02*
G02X33890Y5465I0J134D01*
G01Y5331D01*
G02X33756Y5198I134J0D01*
G01X33489D01*
G02X33355Y5331I0J134D01*
G01X33756Y5599D02*
X33489D01*
G02X33355Y5733I0J134D01*
G01Y5866D01*
G02X33489Y6000I134J0D01*
G01X33756D01*
G02X33890Y5866I0J134D01*
G01X34158D02*
G02X34291Y6000I134J0D01*
G01X34559D01*
G02X34693Y5866I0J134D01*
G01Y5733D01*
G02X34559Y5599I134J0D01*
G01X34291D01*
X34158Y5465D02*
G02X34291Y5599I134J0D01*
G01X34158Y5465D02*
Y5198D01*
X34693D01*
D19*
X24060Y10370D02*
X24260D01*
X24160D02*
Y9770D01*
X24060D02*
X24260D01*
X24560Y10170D02*
Y9770D01*
Y10070D02*
G02X24660Y10170I100J0D01*
G01X24860D01*
G02X24960Y10070I0J100D01*
G01Y9770D01*
X25510Y9870D02*
G02X25410Y9770I100J0D01*
G01X25360D01*
G02X25260Y9870I0J100D01*
G01Y10370D01*
X25160Y10170D02*
X25460D01*
X26160Y9770D02*
X25860D01*
G02X25760Y9870I0J100D01*
G01Y10070D01*
G02X25860Y10170I100J0D01*
G01X26060D01*
G02X26160Y10070I0J100D01*
G01Y9970D01*
X25760D01*
X26560Y10370D02*
Y9770D01*
X27660Y10070D02*
G02X27560Y10170I0J100D01*
G01Y10270D01*
G02X27660Y10370I100J0D01*
G01X27860D01*
G02X27960Y10270I0J100D01*
G01Y10170D01*
G02X27860Y10070I100J0D01*
G01X27660D01*
X27860D02*
G02X27960Y9970I0J100D01*
G01Y9870D01*
G02X27860Y9770I100J0D01*
G01X27660D01*
G02X27560Y9870I0J100D01*
G01Y9970D01*
G02X27660Y10070I100J0D01*
G01X28160Y9870D02*
Y10270D01*
G02X28260Y10370I100J0D01*
G01X28460D01*
G02X28560Y10270I0J100D01*
G01Y9870D01*
G02X28460Y9770I100J0D01*
G01X28260D01*
G02X28160Y9870I0J100D01*
G01X28560Y10270D01*
X28860Y10070D02*
G02X28760Y10170I0J100D01*
G01Y10270D01*
G02X28860Y10370I100J0D01*
G01X29060D01*
G02X29160Y10270I0J100D01*
G01Y10170D01*
G02X29060Y10070I100J0D01*
G01X28860D01*
X29060D02*
G02X29160Y9970I0J100D01*
G01Y9870D01*
G02X29060Y9770I100J0D01*
G01X28860D01*
G02X28760Y9870I0J100D01*
G01Y9970D01*
G02X28860Y10070I100J0D01*
G01X29760Y10370D02*
X29360D01*
Y10070D01*
X29660D01*
G02X29760Y9970I0J100D01*
G01Y9870D01*
G02X29660Y9770I100J0D01*
G01X29460D01*
G02X29360Y9870I0J100D01*
G01X30560Y9770D02*
Y10370D01*
X30760Y10070D01*
X30960Y10370D01*
Y9770D01*
X31360Y10170D02*
Y9770D01*
Y10370D02*
Y10320D01*
X32160Y9870D02*
G02X32060Y9770I100J0D01*
G01X31860D01*
G02X31760Y9870I0J100D01*
G01Y10070D01*
G02X31860Y10170I100J0D01*
G01X32060D01*
G02X32160Y10070I0J100D01*
G01X32360Y10170D02*
Y9770D01*
Y10070D02*
G02X32460Y10170I100J0D01*
G01X32660D01*
G02X32760Y10070I0J100D01*
G01X32960Y9870D02*
Y10070D01*
G02X33060Y10170I100J0D01*
G01X33260D01*
G02X33360Y10070I0J100D01*
G01Y9870D01*
G02X33260Y9770I100J0D01*
G01X33060D01*
G02X32960Y9870I0J100D01*
G01X33960D02*
G02X33860Y9770I100J0D01*
G01X33660D01*
G02X33560Y9870I0J100D01*
G01Y10070D01*
G02X33660Y10170I100J0D01*
G01X33860D01*
G02X33960Y10070I0J100D01*
G01X34160Y9870D02*
Y10070D01*
G02X34260Y10170I100J0D01*
G01X34460D01*
G02X34560Y10070I0J100D01*
G01Y9870D01*
G02X34460Y9770I100J0D01*
G01X34260D01*
G02X34160Y9870I0J100D01*
G01X34760Y10170D02*
Y9770D01*
Y10070D02*
G02X34860Y10170I100J0D01*
X34960Y10070I0J100D01*
G01Y9770D01*
Y10070D02*
G02X35060Y10170I100J0D01*
X35160Y10070I0J100D01*
G01Y9770D01*
X35360Y10170D02*
Y9570D01*
Y10070D02*
G02X35460Y10170I100J0D01*
G01X35660D01*
G02X35760Y10070I0J100D01*
G01Y9870D01*
G02X35660Y9770I100J0D01*
G01X35460D01*
G02X35360Y9870I0J100D01*
G01X36360Y10170D02*
Y9870D01*
G02X36260Y9770I100J0D01*
G01X36060D01*
G02X35960Y9870I0J100D01*
G01Y10170D01*
X36910Y9870D02*
G02X36810Y9770I100J0D01*
G01X36760D01*
G02X36660Y9870I0J100D01*
G01Y10370D01*
X36560Y10170D02*
X36860D01*
X37560Y9770D02*
X37260D01*
G02X37160Y9870I0J100D01*
G01Y10070D01*
G02X37260Y10170I100J0D01*
G01X37460D01*
G02X37560Y10070I0J100D01*
G01Y9970D01*
X37160D01*
X37760Y10170D02*
Y9770D01*
Y10070D02*
G02X37860Y10170I100J0D01*
G01X38060D01*
G02X38160Y10070I0J100D01*
%LPC*%
D20*
G01X24000Y13500D03*
X25000D03*
X26000D03*
X27000D03*
X28000D03*
X29000D03*
X30000D03*
X31000D03*
X32000D03*
X33000D03*
X34000D03*
X35000D03*
X36000D03*
Y19500D03*
X35000D03*
X34000D03*
X33000D03*
X32000D03*
X31000D03*
X30000D03*
X29000D03*
X28000D03*
X27000D03*
X26000D03*
X25000D03*
X24000D03*
X23000D03*
X26000Y17000D03*
X27000D03*
X28000D03*
X29000D03*
X30000D03*
X31000D03*
X32000D03*
X33000D03*
X34000D03*
X35000D03*
X36000D03*
Y11000D03*
X35000D03*
X34000D03*
X33000D03*
X32000D03*
X31000D03*
X30000D03*
X29000D03*
X28000D03*
X27000D03*
X26000D03*
X25000D03*
X3250Y13500D03*
X4250D03*
X5250D03*
X6250D03*
X7250D03*
X8250D03*
X9250D03*
X10250D03*
X11250D03*
X12250D03*
X13250D03*
X14250D03*
X15250D03*
X16250D03*
X17250D03*
X18250D03*
X19250D03*
X20250D03*
X21250D03*
Y19500D03*
X20250D03*
X19250D03*
X18250D03*
X17250D03*
X16250D03*
X15250D03*
X14250D03*
X13250D03*
X12250D03*
X11250D03*
X10250D03*
X9250D03*
X8250D03*
X7250D03*
X6250D03*
X5250D03*
X4250D03*
X3250D03*
X2250D03*
X3250Y17000D03*
X4250D03*
X5250D03*
X6250D03*
X7250D03*
X8250D03*
X9250D03*
X10250D03*
X11250D03*
X12250D03*
X13250D03*
X14250D03*
X15250D03*
X16250D03*
X17250D03*
X18250D03*
X19250D03*
X20250D03*
X21250D03*
Y11000D03*
X20250D03*
X19250D03*
X18250D03*
X17250D03*
X16250D03*
X15250D03*
X14250D03*
X13250D03*
X12250D03*
X11250D03*
X10250D03*
X9250D03*
X8250D03*
X7250D03*
X6250D03*
X5250D03*
X4250D03*
X3250D03*
X2250D03*
X15750Y24500D03*
X14750D03*
X13750D03*
X12750D03*
X11750D03*
X10750D03*
Y21500D03*
X11750D03*
X12750D03*
X13750D03*
X14750D03*
X15750D03*
X16750D03*
X24250Y1750D03*
X22250D03*
X23250D03*
X25250D03*
X26250D03*
X27250D03*
X28250D03*
X29250D03*
X30250D03*
Y7750D03*
X29250D03*
X28250D03*
X27250D03*
X26250D03*
X25250D03*
X24250D03*
X23250D03*
X22250D03*
X1460Y22460D03*
X750Y17000D03*
Y16000D03*
Y15000D03*
Y14000D03*
Y13000D03*
Y12000D03*
Y11000D03*
X34250Y1750D03*
X32250D03*
X33250D03*
X35250D03*
X36250D03*
X37250D03*
X38250D03*
X39250D03*
X40250D03*
Y7750D03*
X39250D03*
X38250D03*
X37250D03*
X36250D03*
X35250D03*
X34250D03*
X33250D03*
X32250D03*
X19250D03*
X18250D03*
X17250D03*
X16250D03*
X15250D03*
X14250D03*
X13250D03*
X12250D03*
X11250D03*
Y4750D03*
X12250D03*
X13250D03*
X14250D03*
X15250D03*
X16250D03*
X17250D03*
X18250D03*
X19250D03*
X20250D03*
X37500Y17500D03*
Y16500D03*
Y15500D03*
Y14500D03*
Y13500D03*
Y12500D03*
X40500D03*
Y13500D03*
Y14500D03*
Y15500D03*
Y16500D03*
Y17500D03*
Y18500D03*
X26500Y21500D03*
X27500D03*
X28500D03*
X29500D03*
X30500D03*
X31500D03*
X32500D03*
Y24500D03*
X31500D03*
X30500D03*
X29500D03*
X28500D03*
X27500D03*
X26500D03*
X25500D03*
X36750Y21500D03*
X21390Y21450D03*
D21*
X5250Y21250D03*
X8250D03*
Y24250D03*
X3070Y6370D03*
Y5390D03*
X3850Y6370D03*
D22*
X21250Y9720D03*
D23*
X7250Y3610D03*
Y1050D03*
X5480Y3610D03*
Y1050D03*
X11500Y3610D03*
Y1050D03*
X9730Y3610D03*
Y1050D03*
X7250Y7000D03*
X9810D03*
X7250Y5230D03*
X9810D03*
D24*
X2000Y8250D03*
Y3510D03*
D25*
X1000Y24500D03*
Y1000D03*
X39500Y4500D03*
X40500Y24500D03*
D27*
X23000Y13500D03*
X25000Y17000D03*
X2250Y13500D03*
Y17000D03*
X16750Y24500D03*
X2460Y22460D03*
X750Y18000D03*
X20250Y7750D03*
X37500Y18500D03*
X25500Y21500D03*
X35750D03*
X22390Y21450D03*
D28*
X5250Y24250D03*
X3850Y5390D03*
D29*
X20250Y9720D03*
D30*
X19000Y8750D03*
X18240D03*
X12750Y2000D03*
X13510D03*
X1700Y20500D03*
X2460D03*
X35500Y24500D03*
X34740D03*
X10000Y20500D03*
X10760D03*
X13500D03*
X12740D03*
X19750Y21500D03*
X18990D03*
X5010Y9250D03*
X4250D03*
X17750Y1250D03*
X16990D03*
D31*
X7230Y8900D03*
X4250Y1600D03*
Y2360D03*
X8500Y1600D03*
Y2360D03*
X22740Y10240D03*
Y11000D03*
X7230Y9660D03*
X14810Y8900D03*
Y9660D03*
X3000Y2360D03*
Y1600D03*
D32*
X3500Y20500D03*
Y21600D03*
X8250Y10000D03*
Y8900D03*
X9250Y10000D03*
Y8900D03*
X13250Y10000D03*
Y8900D03*
X12250Y10000D03*
Y8900D03*
X11250Y10000D03*
Y8900D03*
X10250Y10000D03*
Y8900D03*
%LPD*%
D26*
X0Y25500D02*
X41500D01*
Y0D01*
X0D01*
Y25500D01*
M02*
