G04*
G04 Format:               Gerber RS-274X*
G04 Layer:                BottomSilkscreen*
G04 This File Name:       Mini (Ver 4l 2024).gbo*
G04 Source File Name:     Mini (Ver 4l 2024).rrb*
G04 Unique ID:            9c8083e7-ab2a-4ad3-9dcb-41d5e6687822*
G04 Generated Date:       Sunday, 20 October 2024 01:14:28*
G04*
G04 Created Using:        Robot Room Copper Connection v2.7.5443*
G04 Software Contact:     http://www.robotroom.com/CopperConnection/Support.aspx*
G04 License Number:       1685*
G04 Student Edition:      true*
G04*
G04 Zero Suppression:     Leading*
G04 Number Precision:     2.4*
G04*
%FSLAX24Y24*%
%MOIN*%
%LNBottomSilkscreen*%
%ADD10C,.006*%
%ADD11C,.0071*%
%ADD12C,.012*%
%ADD13C,.026*%
%ADD14C,.031*%
%ADD15C,.056*%
%ADD16C,.065*%
%ADD17C,.075*%
%ADD18C,.088*%
%ADD19C,.15*%
%ADD20C,.16*%
%ADD21R,.006X.006*%
%ADD22R,.056X.056*%
%ADD23R,.065X.065*%
%ADD24R,.075X.075*%
%ADD25R,.05X.04*%
D10*
G01X7760Y13000D02*
Y12681D01*
G74*
G03X7824Y12618I64J0D01*
G01X7951D01*
G03X8015Y12681I0J64D01*
G01Y13000D01*
X7633Y12936D02*
G03X7569Y13000I64J0D01*
G01X7441D01*
G03X7378Y12936I0J64D01*
G01Y12873D01*
G03X7441Y12809I64J0D01*
G01X7569D01*
X7633Y12745D02*
G03X7569Y12809I64J0D01*
G01X7633Y12745D02*
Y12618D01*
X7378D01*
X30260Y15750D02*
Y15431D01*
G03X30324Y15368I64J0D01*
G01X30451D01*
G03X30515Y15431I0J64D01*
G01Y15750D01*
X30069Y15559D02*
G03X30133Y15623I0J64D01*
G01Y15686D01*
G03X30069Y15750I64J0D01*
G01X29941D01*
G03X29878Y15686I0J64D01*
G01Y15623D01*
G03X29941Y15559I64J0D01*
G01X30069D01*
X29941D02*
G03X29878Y15495I0J64D01*
G01Y15431D01*
G03X29941Y15368I64J0D01*
G01X30069D01*
G03X30133Y15431I0J64D01*
G01Y15495D01*
G03X30069Y15559I64J0D01*
G01X40819Y21643D02*
G03X40882Y21706I0J64D01*
G01Y21834D01*
G03X40819Y21898I64J0D01*
G01X40564D01*
G03X40500Y21834I0J64D01*
G01Y21706D01*
G03X40564Y21643I64J0D01*
G01Y21451D02*
X40500Y21388D01*
X40882D01*
Y21451D02*
Y21324D01*
X40819Y21132D02*
X40564D01*
G03X40500Y21069I0J64D01*
G01Y20941D01*
G03X40564Y20878I64J0D01*
G01X40819D01*
G03X40882Y20941I0J64D01*
G01Y21069D01*
G03X40819Y21132I64J0D01*
G01X40564Y20878D01*
X22515Y11180D02*
Y10798D01*
Y11180D02*
X22324D01*
G03X22260Y11116I0J64D01*
G01Y11053D01*
G03X22324Y10989I64J0D01*
G01X22515D01*
X22451D02*
X22260Y10798D01*
X22133Y10925D02*
G03X22069Y10989I64J0D01*
G01X21941D01*
G03X21878Y10925I0J64D01*
G01Y10861D01*
G03X21941Y10798I64J0D01*
G01X22069D01*
G03X22133Y10861I0J64D01*
G01Y11116D01*
G03X22069Y11180I64J0D01*
G01X21941D01*
G03X21878Y11116I0J64D01*
D11*
G01X34650Y14550D02*
Y15000D01*
X34500Y14775D01*
X34350Y15000D01*
Y14550D01*
X33900D02*
Y15000D01*
X34200D02*
Y14775D01*
X33900D01*
X33675D02*
G03X33750Y14850I0J75D01*
G01Y14925D01*
G03X33675Y15000I75J0D01*
G01X33525D01*
G03X33450Y14925I0J75D01*
G01Y14850D01*
G03X33525Y14775I75J0D01*
G01X33675D01*
X33525D02*
G03X33450Y14700I0J75D01*
G01Y14625D01*
G03X33525Y14550I75J0D01*
G01X33675D01*
G03X33750Y14625I0J75D01*
G01Y14700D01*
G03X33675Y14775I75J0D01*
G01X33300Y15000D02*
X33000D01*
X33150D02*
Y14550D01*
X32850Y14625D02*
Y14925D01*
G03X32775Y15000I75J0D01*
G01X32625D01*
G03X32550Y14925I0J75D01*
G01Y14625D01*
G03X32625Y14550I75J0D01*
G01X32775D01*
G03X32850Y14625I0J75D01*
G01X32550Y14925D01*
X32400D02*
G03X32325Y15000I75J0D01*
G01X32175D01*
G03X32100Y14925I0J75D01*
G01Y14850D01*
G03X32175Y14775I75J0D01*
G01X32325D01*
X32400Y14700D02*
G03X32325Y14775I75J0D01*
G01X32400Y14700D02*
Y14550D01*
X32100D01*
X31950Y14775D02*
X31650D01*
X31500Y15000D02*
X31200D01*
X31425Y14550D01*
X31050Y14625D02*
Y14925D01*
G03X30975Y15000I75J0D01*
G01X30825D01*
G03X30750Y14925I0J75D01*
G01Y14625D01*
G03X30825Y14550I75J0D01*
G01X30975D01*
G03X31050Y14625I0J75D01*
G01X30750Y14925D01*
X30600Y15000D02*
Y14550D01*
Y15000D02*
X30375D01*
G03X30300Y14925I0J75D01*
G01Y14850D01*
G03X30375Y14775I75J0D01*
G01X30600D01*
X29850Y14625D02*
G03X29925Y14550I75J0D01*
G01X30075D01*
G03X30150Y14625I0J75D01*
G01Y14925D01*
G03X30075Y15000I75J0D01*
G01X29925D01*
G03X29850Y14925I0J75D01*
G01X29625D02*
X29550Y15000D01*
Y14550D01*
X29625D02*
X29475D01*
X8555Y12165D02*
G03X8630Y12240I0J75D01*
G01Y12315D01*
G03X8555Y12390I75J0D01*
G01X8405D01*
G03X8330Y12315I0J75D01*
G01Y12240D01*
G03X8405Y12165I75J0D01*
G01X8555D01*
X8405D02*
G03X8330Y12090I0J75D01*
G01Y12015D01*
G03X8405Y11940I75J0D01*
G01X8555D01*
G03X8630Y12015I0J75D01*
G01Y12090D01*
G03X8555Y12165I75J0D01*
G01X8105Y12315D02*
X8030Y12390D01*
Y11940D01*
X8105D02*
X7955D01*
X7430Y12390D02*
X7730D01*
Y12165D01*
X7505D01*
G03X7430Y12090I0J75D01*
G01Y12015D01*
G03X7505Y11940I75J0D01*
G01X7655D01*
G03X7730Y12015I0J75D01*
G01X6980Y12390D02*
X7280D01*
Y12165D01*
X7055D01*
G03X6980Y12090I0J75D01*
G01Y12015D01*
G03X7055Y11940I75J0D01*
G01X7205D01*
G03X7280Y12015I0J75D01*
D12*
G01X24600Y14250D02*
Y16350D01*
X36400D01*
Y11650D01*
X24600D01*
Y13750D01*
X25100D01*
Y14250D01*
X24600D01*
X1850D02*
Y16350D01*
X21650D01*
Y11650D01*
X1850D01*
Y13750D01*
X2350D01*
Y14250D01*
X1850D01*
%LPC*%
D13*
X10750Y20500D03*
X27000Y18750D03*
X34750Y5750D03*
X22070Y10480D03*
X10250Y17750D03*
X29500Y22750D03*
X6250Y15000D03*
X12750Y20500D03*
X16250Y15250D03*
X32500Y8750D03*
X33750Y6000D03*
X7220Y9660D03*
X3250Y15250D03*
X14750Y23000D03*
X12750D03*
X32750Y5250D03*
X13500Y2000D03*
X31500Y2750D03*
X26000Y20500D03*
X12750Y15250D03*
X21250Y20500D03*
X30000Y18500D03*
X2250Y15500D03*
X10750D03*
X37250Y5750D03*
X36250Y5500D03*
X35250Y5250D03*
X34250Y5000D03*
X23250Y4000D03*
X33250D03*
X27250Y3750D03*
X38250Y3000D03*
X37250Y3750D03*
X38750Y2500D03*
X30750Y3000D03*
X29500Y17750D03*
X23250Y10250D03*
X35750Y4000D03*
X29750Y3250D03*
X28250Y3000D03*
X29250Y2750D03*
X28750Y3500D03*
X14250Y22500D03*
X15250Y22250D03*
X3250Y2500D03*
X23500Y22250D03*
X26750Y3750D03*
X33250Y3500D03*
X34740Y24500D03*
X25750Y4500D03*
X19250Y6000D03*
X25500Y22750D03*
X23750Y5000D03*
Y6000D03*
X26500Y23000D03*
X15250Y15500D03*
X35000D03*
X11750Y22750D03*
X10750Y12500D03*
X14250Y15750D03*
X16250Y20250D03*
X25000D03*
X24000Y18000D03*
X34000Y15750D03*
X28000Y18250D03*
X13250Y16000D03*
X33000D03*
X9750Y23250D03*
X14810Y9660D03*
X3250Y1750D03*
X18990Y21500D03*
X36500Y15250D03*
X17250Y15000D03*
X35500D03*
X18250Y14750D03*
X34500D03*
X19250Y14500D03*
X33500D03*
X20250Y14250D03*
X24250Y23750D03*
X3380Y9200D03*
X17000Y1250D03*
X32500Y14250D03*
D14*
X3500Y20500D03*
D15*
X24000Y13500D03*
X25000D03*
X26000D03*
X27000D03*
X28000D03*
X29000D03*
X30000D03*
X31000D03*
X32000D03*
X33000D03*
X34000D03*
X35000D03*
X36000D03*
Y19500D03*
X35000D03*
X34000D03*
X33000D03*
X32000D03*
X31000D03*
X30000D03*
X29000D03*
X28000D03*
X27000D03*
X26000D03*
X25000D03*
X24000D03*
X23000D03*
X26000Y17000D03*
X27000D03*
X28000D03*
X29000D03*
X30000D03*
X31000D03*
X32000D03*
X33000D03*
X34000D03*
X35000D03*
X36000D03*
Y11000D03*
X35000D03*
X34000D03*
X33000D03*
X32000D03*
X31000D03*
X30000D03*
X29000D03*
X28000D03*
X27000D03*
X26000D03*
X25000D03*
X3250Y13500D03*
X4250D03*
X5250D03*
X6250D03*
X7250D03*
X8250D03*
X9250D03*
X10250D03*
X11250D03*
X12250D03*
X13250D03*
X14250D03*
X15250D03*
X16250D03*
X17250D03*
X18250D03*
X19250D03*
X20250D03*
X21250D03*
Y19500D03*
X20250D03*
X19250D03*
X18250D03*
X17250D03*
X16250D03*
X15250D03*
X14250D03*
X13250D03*
X12250D03*
X11250D03*
X10250D03*
X9250D03*
X8250D03*
X7250D03*
X6250D03*
X5250D03*
X4250D03*
X3250D03*
X2250D03*
X3250Y17000D03*
X4250D03*
X5250D03*
X6250D03*
X7250D03*
X8250D03*
X9250D03*
X10250D03*
X11250D03*
X12250D03*
X13250D03*
X14250D03*
X15250D03*
X16250D03*
X17250D03*
X18250D03*
X19250D03*
X20250D03*
X21250D03*
Y11000D03*
X20250D03*
X19250D03*
X18250D03*
X17250D03*
X16250D03*
X15250D03*
X14250D03*
X13250D03*
X12250D03*
X11250D03*
X10250D03*
X9250D03*
X8250D03*
X7250D03*
X6250D03*
X5250D03*
X4250D03*
X3250D03*
X2250D03*
X15750Y24500D03*
X14750D03*
X13750D03*
X12750D03*
X11750D03*
X10750D03*
Y21500D03*
X11750D03*
X12750D03*
X13750D03*
X14750D03*
X15750D03*
X16750D03*
X24250Y1750D03*
X22250D03*
X23250D03*
X25250D03*
X26250D03*
X27250D03*
X28250D03*
X29250D03*
X30250D03*
Y7750D03*
X29250D03*
X28250D03*
X27250D03*
X26250D03*
X25250D03*
X24250D03*
X23250D03*
X22250D03*
X1460Y22460D03*
X750Y17000D03*
Y16000D03*
Y15000D03*
Y14000D03*
Y13000D03*
Y12000D03*
Y11000D03*
X34250Y1750D03*
X32250D03*
X33250D03*
X35250D03*
X36250D03*
X37250D03*
X38250D03*
X39250D03*
X40250D03*
Y7750D03*
X39250D03*
X38250D03*
X37250D03*
X36250D03*
X35250D03*
X34250D03*
X33250D03*
X32250D03*
X19250D03*
X18250D03*
X17250D03*
X16250D03*
X15250D03*
X14250D03*
X13250D03*
X12250D03*
X11250D03*
Y4750D03*
X12250D03*
X13250D03*
X14250D03*
X15250D03*
X16250D03*
X17250D03*
X18250D03*
X19250D03*
X20250D03*
X37500Y17500D03*
Y16500D03*
Y15500D03*
Y14500D03*
Y13500D03*
Y12500D03*
X40500D03*
Y13500D03*
Y14500D03*
Y15500D03*
Y16500D03*
Y17500D03*
Y18500D03*
X26500Y21500D03*
X27500D03*
X28500D03*
X29500D03*
X30500D03*
X31500D03*
X32500D03*
Y24500D03*
X31500D03*
X30500D03*
X29500D03*
X28500D03*
X27500D03*
X26500D03*
X25500D03*
X36750Y21500D03*
X21390Y21450D03*
X21250Y11890D03*
X20250D03*
X19250D03*
X18250D03*
X17250D03*
X16250D03*
X15250D03*
D16*
X5250Y21250D03*
X8250D03*
Y24250D03*
X3070Y6370D03*
Y5390D03*
X3850Y6370D03*
D17*
X21250Y9720D03*
D18*
X7250Y3610D03*
Y1050D03*
X5480Y3610D03*
Y1050D03*
X11500Y3610D03*
Y1050D03*
X9730Y3610D03*
Y1050D03*
X7250Y7000D03*
X9810D03*
X7250Y5230D03*
X9810D03*
D19*
X2000Y8250D03*
Y3510D03*
D20*
X1000Y24500D03*
Y1000D03*
X40350Y4030D03*
X40500Y24500D03*
D22*
X23000Y13500D03*
X25000Y17000D03*
X2250Y13500D03*
Y17000D03*
X16750Y24500D03*
X2460Y22460D03*
X750Y18000D03*
X20250Y7750D03*
X37500Y18500D03*
X25500Y21500D03*
X35750D03*
X22390Y21450D03*
X22250Y11890D03*
D23*
X5250Y24250D03*
X3850Y5390D03*
D24*
X5030Y7840D03*
X20250Y9720D03*
D25*
X40500Y20250D03*
Y19490D03*
X22060Y9720D03*
Y10480D03*
%LPD*%
D21*
X0Y25500D02*
X41500D01*
Y0D01*
X0D01*
Y25500D01*
M02*
